<svg width="24" height="24" viewBox="0 0 24 24" fill="none" xmlns="http://www.w3.org/2000/svg">
<path d="M0 22.0015H14V24.0015H0V22.0015Z" fill="#D29404"/>
<path d="M12 19.9863C12 19.7211 11.8946 19.4668 11.7071 19.2792C11.5196 19.0917 11.2652 18.9863 11 18.9863H3C2.73478 18.9863 2.48043 19.0917 2.29289 19.2792C2.10536 19.4668 2 19.7211 2 19.9863V21.0026H12V19.9863Z" fill="#D29404"/>
<path d="M13.6065 11.8081C13.1406 12.3047 12.7499 12.8669 12.4468 13.4766L20.6778 21.7076C20.8653 21.8951 21.1196 22.0004 21.3848 22.0004C21.6499 22.0004 21.9043 21.8951 22.0918 21.7076L23.506 20.2934C23.5989 20.2005 23.6726 20.0903 23.7228 19.969C23.7731 19.8476 23.7989 19.7176 23.7989 19.5863C23.7989 19.4549 23.7731 19.3249 23.7228 19.2036C23.6726 19.0822 23.5989 18.972 23.506 18.8791L15.275 10.6504C14.6642 10.9508 14.1018 11.3411 13.6065 11.8081Z" fill="#D29404"/>
<path d="M8.65678 6.85839C7.90056 7.56018 7.02517 8.1214 6.07178 8.51564L11.2403 13.6841C11.6381 12.7324 12.1998 11.8579 12.9 11.1004C13.6563 10.3986 14.5317 9.83734 15.485 9.44289L10.3163 4.27539C9.91836 5.22678 9.35669 6.10102 8.65678 6.85839Z" fill="#D29404"/>
<path d="M12.1906 0.495944L10.7766 1.90994C10.3861 2.30041 10.3861 2.93348 10.7766 3.32394L16.4326 8.97994C16.823 9.37041 17.4561 9.37041 17.8466 8.97994L19.2606 7.56594C19.651 7.17548 19.651 6.54241 19.2606 6.15194L13.6046 0.495944C13.2141 0.105478 12.581 0.105478 12.1906 0.495944Z" fill="#D29404"/>
<path d="M3.70547 8.98056L2.29147 10.3946C1.90101 10.785 1.90101 11.4181 2.29147 11.8086L7.94747 17.4646C8.33794 17.855 8.97101 17.855 9.36147 17.4646L10.7755 16.0506C11.1659 15.6601 11.1659 15.027 10.7755 14.6366L5.11947 8.98056C4.72901 8.5901 4.09594 8.5901 3.70547 8.98056Z" fill="#D29404"/>
</svg>
