<svg width="15" height="14" viewBox="0 0 15 14" fill="none" xmlns="http://www.w3.org/2000/svg">
<path d="M7.49337 0.333496C3.81337 0.333496 0.833374 3.32016 0.833374 7.00016C0.833374 10.6802 3.81337 13.6668 7.49337 13.6668C11.18 13.6668 14.1667 10.6802 14.1667 7.00016C14.1667 3.32016 11.18 0.333496 7.49337 0.333496ZM7.50004 12.3335C4.55337 12.3335 2.16671 9.94683 2.16671 7.00016C2.16671 4.0535 4.55337 1.66683 7.50004 1.66683C10.4467 1.66683 12.8334 4.0535 12.8334 7.00016C12.8334 9.94683 10.4467 12.3335 7.50004 12.3335ZM7.35337 3.66683H7.31337C7.04671 3.66683 6.83337 3.88016 6.83337 4.14683V7.2935C6.83337 7.52683 6.95337 7.74683 7.16004 7.86683L9.92671 9.52683C10.1534 9.66016 10.4467 9.5935 10.58 9.36683C10.72 9.14016 10.6467 8.84016 10.4134 8.70683L7.83337 7.1735V4.14683C7.83337 3.88016 7.62004 3.66683 7.35337 3.66683Z" fill="black" fill-opacity="0.6"/>
</svg>
