<svg width="20" height="20" viewBox="0 0 20 20" fill="none" xmlns="http://www.w3.org/2000/svg">
<path d="M0 4C0 1.79086 1.79086 0 4 0H16C18.2091 0 20 1.79086 20 4V16C20 18.2091 18.2091 20 16 20H4C1.79086 20 0 18.2091 0 16V4Z" fill="#0E73F6"/>
<path fill-rule="evenodd" clip-rule="evenodd" d="M15 6C14.72 6 14.47 6.11 14.29 6.29L8 12.59L5.71 10.29C5.53 10.11 5.28 10 5 10C4.45 10 4 10.45 4 11C4 11.28 4.11 11.53 4.29 11.71L7.29 14.71C7.47 14.89 7.72 15 8 15C8.28 15 8.53 14.89 8.71 14.71L15.71 7.71C15.89 7.53 16 7.28 16 7C16 6.45 15.55 6 15 6Z" fill="white"/>
</svg>
