<svg width="10" height="12" viewBox="0 0 10 12" fill="none" xmlns="http://www.w3.org/2000/svg">
<path d="M8.06004 4H7.00004V0.666667C7.00004 0.3 6.70004 0 6.33337 0H3.66671C3.30004 0 3.00004 0.3 3.00004 0.666667V4H1.94004C1.34671 4 1.04671 4.72 1.46671 5.14L4.52671 8.2C4.78671 8.46 5.20671 8.46 5.46671 8.2L8.52671 5.14C8.94671 4.72 8.65337 4 8.06004 4ZM0.333374 10.6667C0.333374 11.0333 0.633374 11.3333 1.00004 11.3333H9.00004C9.36671 11.3333 9.66671 11.0333 9.66671 10.6667C9.66671 10.3 9.36671 10 9.00004 10H1.00004C0.633374 10 0.333374 10.3 0.333374 10.6667Z" fill="black" fill-opacity="0.5"/>
</svg>
