<svg width="16" height="14" viewBox="0 0 16 14" fill="none" xmlns="http://www.w3.org/2000/svg">
<path d="M16 3.16545V0.0761719H12.9107V1.15205H3.08928V0.0761719H0V3.16545H1.07591V10.8351H0V13.9244H3.08928V12.8485H12.9107V13.9244H16V10.8351H14.9241V3.16545H16ZM13.8482 1.01367H15.0625V2.22795H13.8482V1.01367ZM0.9375 1.01367H2.15178V2.22795H0.9375V1.01367ZM2.15178 12.9869H0.9375V11.7726H2.15178V12.9869ZM15.0625 12.9869H13.8482V11.7726H15.0625V12.9869ZM13.9866 10.8351H12.9107V11.911H3.08928V10.8351H2.01341V3.16545H3.08928V2.08955H12.9107V3.16545H13.9866V10.8351Z" fill="#48535B"/>
</svg>
