<svg width="12" height="16" viewBox="0 0 12 16" fill="none" xmlns="http://www.w3.org/2000/svg">
<path d="M7.27461 12.0036C8.13769 12.2992 8.89979 12.4875 9.99477 12.8239C9.57411 18.1392 4.54796 16.0283 7.27461 12.0036ZM11.7622 7.12093C11.7055 5.52499 11.4244 3.43148 9.1853 3.75951C8.13567 4.03344 7.36013 5.18619 6.99537 7.17504C6.79504 8.26856 6.91153 9.80347 7.14784 10.7236C7.3636 11.372 7.29022 11.3321 7.52213 11.4553C8.41969 11.6575 9.30825 11.8813 10.2131 12.1095C11.1323 11.4604 11.8873 8.01406 11.7622 7.12093ZM4.85216 6.99845C5.08828 6.07823 5.20478 4.54331 5.00454 3.44991C4.64006 1.46097 3.86442 0.308041 2.81461 0.0342958C0.575511 -0.293739 0.29441 1.79975 0.23773 3.39578C0.112607 4.28875 0.867663 7.73528 1.78699 8.38431C2.69178 8.15607 3.58022 7.93242 4.47806 7.73004C4.70968 7.60703 4.6363 7.64685 4.85216 6.99845ZM2.00504 9.09892C2.42555 14.4141 7.45169 12.3032 4.72511 8.27861C3.86203 8.57421 3.09999 8.76244 2.00504 9.09892Z" fill="#48535B"/>
</svg>
