<svg width="400" height="200" viewBox="0 0 400 200" fill="none" xmlns="http://www.w3.org/2000/svg">
<rect width="400" height="200" fill="white"/>
<path d="M0 33.5938V67.1875H200H400V33.5938V0H200H0V33.5938ZM51.9688 16.1094C53.6562 16.3438 55.625 16.9375 57.2344 17.6875C58.6406 18.3594 59.375 18.8906 58.5938 18.7031C57.6719 18.4688 55.5938 18.4219 54.25 18.5781C49.6406 19.1406 45.5312 21.7656 43.1094 25.6875C41.5781 28.1719 40.9375 30.5312 40.9375 33.5938C40.9375 36.6719 41.5781 39.0156 43.1406 41.5312C44.6562 44 46.7344 45.875 49.4531 47.2031C51.6719 48.2812 53.3125 48.6406 55.9375 48.6562C57.0938 48.6719 58.25 48.6094 58.4844 48.5469C59.3438 48.3125 58.7344 48.7812 57.2812 49.4688C49.1875 53.2969 39.8281 50.7344 34.9062 43.3438C30.25 36.3438 31.1875 27.0312 37.1875 21.0938C40.0625 18.2344 43.25 16.7031 47.6562 16.0312C48.5156 15.9062 50.8281 15.9531 51.9688 16.1094ZM84.2188 26.9062L85.0625 29.5312L87.9375 29.5625L90.8125 29.6094L88.5312 31.25C87.2812 32.1562 86.2656 32.9688 86.2656 33.0469C86.25 33.1406 86.6406 34.3594 87.1094 35.7812C87.5781 37.1875 87.9375 38.375 87.8906 38.4062C87.8594 38.4375 86.7969 37.7344 85.5469 36.8125C84.2969 35.9062 83.2344 35.1562 83.2031 35.1562C83.1562 35.1562 82.3438 35.7344 81.375 36.4531C78.9531 38.2344 78.5781 38.4844 78.5156 38.4062C78.4688 38.375 78.8281 37.1875 79.2969 35.7812C79.7656 34.3594 80.1562 33.1406 80.1406 33.0469C80.1406 32.9688 79.125 32.1562 77.875 31.25L75.6094 29.6094L78.4844 29.5625L81.3594 29.5312L82.1875 26.9062C82.6406 25.4688 83.0469 24.2344 83.0938 24.1719C83.2188 23.9219 83.3906 24.3125 84.2188 26.9062ZM100.172 26.75L101.016 29.4531L103.906 29.5312L106.781 29.6094L104.484 31.3125C103.203 32.2344 102.203 33.0781 102.234 33.1875C102.766 34.625 103.922 38.3125 103.859 38.375C103.812 38.4219 102.766 37.7031 101.5 36.7969L99.2188 35.125L98.7188 35.4844C98.4375 35.6875 97.3906 36.4375 96.4062 37.1562C95.2812 37.9844 94.5938 38.3906 94.5625 38.2656C94.5469 38.1406 94.9062 36.9062 95.375 35.5156L96.2188 32.9844L93.9219 31.2969L91.6094 29.6094L94.4688 29.5625L97.3281 29.5312L98.2344 26.7969C98.7188 25.2969 99.1719 24.0625 99.2188 24.0625C99.2656 24.0625 99.6875 25.2812 100.172 26.75ZM76.1562 36.3594L77.0469 39.0625L79.9688 39.0938L82.875 39.1406L80.5781 40.8281C79.3125 41.7656 78.2812 42.6094 78.2812 42.7188C78.2812 42.8125 78.6719 44.0469 79.1406 45.4688C79.6094 46.875 79.9688 48.0469 79.9375 48.0781C79.8906 48.125 79.6562 47.9688 76.8594 45.9219L75.2188 44.7188L72.875 46.4062C71.5938 47.3438 70.5312 48.0781 70.5 48.0469C70.4688 48.0156 70.8438 46.7812 71.3281 45.3125C71.8125 43.8281 72.1562 42.5625 72.0781 42.5C72.0156 42.4375 70.9688 41.6562 69.7656 40.7656L67.5781 39.1406L70.4844 39.0938L73.3906 39.0625L74.1406 36.6719C74.9844 33.9688 75.1406 33.5312 75.2188 33.6094C75.25 33.6406 75.6719 34.8906 76.1562 36.3594ZM92.1875 36.4375L93.0156 39.0625L95.9219 39.0938L98.8281 39.1406L96.6406 40.7656C95.4375 41.6562 94.3906 42.4375 94.3125 42.5156C94.25 42.5781 94.5781 43.8281 95.0781 45.3125C95.5625 46.7812 95.9375 48.0156 95.9062 48.0469C95.875 48.0781 94.8125 47.3438 93.5312 46.4062L91.2031 44.7188L89.5469 45.9219C86.75 47.9688 86.5156 48.125 86.4688 48.0781C86.4375 48.0469 86.7969 46.875 87.2656 45.4688C87.7344 44.0469 88.125 42.8125 88.125 42.7188C88.125 42.6094 87.0938 41.7656 85.8281 40.8281L83.5312 39.1406L86.4375 39.0938L89.3594 39.0625L90.25 36.3125C90.7344 34.8125 91.1875 33.6406 91.25 33.7031C91.3125 33.7656 91.7344 35 92.1875 36.4375ZM111.969 39.0625L114.922 39.1406L114.375 39.5312C114.078 39.7344 113.016 40.5156 112.016 41.25L110.203 42.5781L111.094 45.3594C111.594 46.875 111.969 48.125 111.938 48.125C111.906 48.125 110.828 47.3594 109.547 46.4219L107.219 44.7031L104.891 46.4062C103.625 47.3281 102.562 48.0312 102.531 47.9688C102.5 47.875 103.766 43.7812 104.156 42.7344C104.188 42.6406 103.156 41.7969 101.875 40.8594L99.5156 39.1406L102.438 39.0625L105.359 38.9844L106.203 36.4844C106.656 35.1094 107.078 33.875 107.125 33.75C107.188 33.6094 107.609 34.6562 108.125 36.25L109.016 38.9844L111.969 39.0625Z" fill="#008EB7"/>
<rect width="400" height="54.375" transform="translate(0 72.8125)" fill="#F7BD29"/>
<path d="M0 70.8594V72.8125H200H400V70.8594V68.9062H200H0V70.8594Z" fill="#DA251D"/>
<path d="M0 129.141V131.094H200H400V129.141V127.188H200H0V129.141Z" fill="#DA251D"/>
<path d="M0 166.406V200H200H400V166.406V132.812H200H0V166.406Z" fill="#209C3A"/>
</svg>
