<svg width="257" height="40" viewBox="0 0 257 40" fill="none" xmlns="http://www.w3.org/2000/svg">
<path d="M6.15635 9.30371L1.10347 11.6148C0.406519 11.8815 0.0580444 12.5926 0.0580444 13.3037C0.0580444 14.0148 0.493637 14.7259 1.10347 14.9926L4.84957 16.6815L13.5614 12.6815L6.15635 9.30371Z" fill="white"/>
<path d="M17.0462 14.4595L8.42146 18.3706L12.9516 20.415L21.4021 16.415L17.0462 14.4595Z" fill="white"/>
<path d="M24.8869 18.1929L16.5235 22.104L24.1028 25.5707C24.3641 25.6595 24.6255 25.7484 24.8869 25.7484C25.1482 25.7484 25.4096 25.6595 25.6709 25.5707L33.3374 22.104L24.8869 18.1929Z" fill="white"/>
<path d="M21.315 9.21469L17.0462 11.1702L9.64111 7.70358L13.8228 5.83691L21.315 9.21469Z" fill="white"/>
<path d="M29.1557 12.8594L24.8869 14.9038L20.6181 12.8594L24.8869 10.9038L29.1557 12.8594Z" fill="white"/>
<path d="M32.6404 14.4595L28.2845 16.5039L36.6479 20.415L41.178 18.3706L32.6404 14.4595Z" fill="white"/>
<path d="M32.292 4.23712L24.7998 7.6149L17.3947 4.14823L24.1028 1.12601C24.5384 0.948231 25.1482 0.948231 25.5838 1.12601L32.292 4.23712Z" fill="white"/>
<path d="M40.0455 7.70358L32.6405 11.1702L28.4588 9.21469L35.951 5.83691L40.0455 7.70358Z" fill="white"/>
<path d="M49.6285 13.3037C49.6285 14.0148 49.1929 14.7259 48.5831 14.9926L44.837 16.6815L36.2122 12.7704L43.6173 9.30371L48.6702 11.6148C49.1929 11.9704 49.6285 12.5926 49.6285 13.3037Z" fill="white"/>
<path d="M48.5831 18.4595L48.0604 18.1929L25.5838 28.504C25.3224 28.5929 25.0611 28.6818 24.7997 28.6818C24.5384 28.6818 24.277 28.5929 24.0157 28.504L1.62617 18.2818L1.01634 18.5484C0.40651 18.8151 -0.0290833 19.5262 -0.0290833 20.2373C-0.0290833 20.9484 0.40651 21.6595 1.01634 21.9262L24.1028 32.4151C24.3641 32.504 24.6255 32.5929 24.8868 32.5929C25.1482 32.5929 25.4096 32.504 25.6709 32.4151L48.5831 21.9262C49.1929 21.6595 49.6285 20.9484 49.6285 20.2373C49.6285 19.4373 49.1929 18.8151 48.5831 18.4595Z" fill="white"/>
<path d="M48.5831 25.4815L47.9733 25.2149L25.5838 35.4371C25.3225 35.526 25.0611 35.6149 24.7997 35.6149C24.5384 35.6149 24.277 35.526 24.0157 35.4371L1.7133 25.126L1.10347 25.4815C0.493638 25.7482 0.0580444 26.4593 0.0580444 27.1704C0.0580444 27.8815 0.493638 28.5926 1.10347 28.8593L24.1028 39.3482C24.3641 39.4371 24.6255 39.526 24.8869 39.526C25.1482 39.526 25.4096 39.4371 25.6709 39.3482L48.6702 28.7704C49.2801 28.5038 49.7157 27.7926 49.7157 27.0815C49.7157 26.3704 49.193 25.7482 48.5831 25.4815Z" fill="white"/>
<path d="M64.4388 34.1928V24.1483C64.4388 23.8817 64.3516 23.615 64.2645 23.3483L57.3821 6.54834H62.0866C63.7418 10.9928 65.8327 16.6817 66.6167 19.5261C67.575 16.415 69.753 10.7261 71.234 6.54834H75.6771L68.7947 23.3483C68.7076 23.5261 68.6205 23.7928 68.6205 24.2372V34.1928H64.4388Z" fill="white"/>
<path d="M90.4001 21.5706H81.6011V30.4595H91.4455L90.9228 34.1928H77.5066V6.54834H90.9228V10.2817H81.6011V17.7483H90.4001V21.5706Z" fill="white"/>
<path d="M98.6764 22.1039V34.1928H94.4947V6.54834H102.335C107.127 6.54834 109.74 9.12612 109.74 13.9261C109.74 17.9261 107.65 19.7039 106.169 20.2372C108.434 21.215 109.305 23.1706 109.305 27.1706V28.2372C109.305 31.1706 109.392 32.5928 109.653 34.015H105.559C105.21 32.7706 105.123 30.4595 105.123 28.1483V27.2595C105.123 23.5261 104.339 22.015 101.029 22.015H98.6764V22.1039ZM98.6764 18.5483H101.377C104.426 18.5483 105.646 17.0372 105.646 14.1039C105.646 11.615 104.513 10.015 101.813 10.015H98.7635V18.5483H98.6764Z" fill="white"/>
<path d="M126.729 21.5706H117.93V30.4595H127.774L127.251 34.1928H113.748V6.54834H127.164V10.2817H117.93V17.7483H126.729V21.5706Z" fill="white"/>
<path d="M130.823 6.54834H135.005V30.4594H144.414L143.978 34.1039H130.823V6.54834Z" fill="white"/>
<path d="M159.921 21.5706H151.122V30.4595H160.966L160.444 34.1928H146.94V6.54834H160.356V10.2817H151.122V17.7483H159.921V21.5706Z" fill="white"/>
<path d="M164.015 6.54834H168.197V19.3483C169.852 16.7706 173.598 10.2817 176.038 6.54834H180.916L173.598 17.4817L181.004 34.1928H176.299L170.724 21.0372L168.197 24.5928V34.1039H164.015V6.54834Z" fill="white"/>
<path d="M187.973 10.2817H182.136V6.54834H198.079V10.2817H192.242V34.1039H188.06V10.2817H187.973Z" fill="white"/>
<path d="M205.048 22.1039V34.1928H200.867V6.54834H208.707C213.499 6.54834 216.112 9.12612 216.112 13.9261C216.112 17.9261 214.021 19.7039 212.54 20.2372C214.806 21.215 215.677 23.1706 215.677 27.1706V28.2372C215.677 31.1706 215.764 32.5928 216.025 34.015H211.931C211.582 32.7706 211.495 30.4595 211.495 28.1483V27.2595C211.495 23.5261 210.711 22.015 207.4 22.015H205.048V22.1039ZM205.048 18.5483H207.749C210.798 18.5483 212.018 17.0372 212.018 14.1039C212.018 11.615 210.885 10.015 208.185 10.015H205.135V18.5483H205.048Z" fill="white"/>
<path d="M236.324 20.1482C236.324 30.0149 233.797 34.6371 227.699 34.6371C221.949 34.6371 219.336 30.1038 219.336 20.1482C219.336 10.3705 222.472 6.19269 227.961 6.19269C233.71 6.1038 236.324 10.6371 236.324 20.1482ZM223.605 20.0594C223.605 27.0816 224.737 30.9927 227.786 30.9927C230.923 30.9927 231.968 27.2594 231.968 20.0594C231.968 13.126 230.835 9.74824 227.786 9.74824C224.737 9.74824 223.605 13.3927 223.605 20.0594Z" fill="white"/>
<path d="M240.331 34.1928V6.54834H245.21C251.482 23.1706 252.528 25.9261 252.876 27.2595C252.702 23.7928 252.615 19.7039 252.615 15.1706V6.54834H256.448V34.1928H251.744C245.297 16.5928 244.252 13.8372 243.903 12.5928C244.077 15.9706 244.077 20.2372 244.077 25.215V34.1928H240.331Z" fill="white"/>
</svg>
