<svg width="14" height="18" viewBox="0 0 14 18" fill="none" xmlns="http://www.w3.org/2000/svg">
<path d="M6.99999 8.99984C6.08333 8.99984 5.33333 8.24984 5.33333 7.33317C5.33333 6.4165 6.08333 5.6665 6.99999 5.6665C7.91666 5.6665 8.66666 6.4165 8.66666 7.33317C8.66666 8.24984 7.91666 8.99984 6.99999 8.99984ZM12 7.49984C12 4.47484 9.79166 2.33317 6.99999 2.33317C4.20833 2.33317 1.99999 4.47484 1.99999 7.49984C1.99999 9.44984 3.62499 12.0332 6.99999 15.1165C10.375 12.0332 12 9.44984 12 7.49984ZM6.99999 0.666504C10.5 0.666504 13.6667 3.34984 13.6667 7.49984C13.6667 10.2665 11.4417 13.5415 6.99999 17.3332C2.55833 13.5415 0.333328 10.2665 0.333328 7.49984C0.333328 3.34984 3.49999 0.666504 6.99999 0.666504Z" fill="black" fill-opacity="0.5"/>
</svg>
