<svg width="19" height="19" viewBox="0 0 19 19" fill="none" xmlns="http://www.w3.org/2000/svg">
<path d="M15.0711 6.75718L11.5356 10.2927C10.7436 11.0847 10.2698 12.0817 10.1213 13.1211L5.8787 8.8785C6.94643 8.73001 7.92931 8.2421 8.70712 7.46429L12.2427 3.92875L15.0711 6.75718ZM18.6066 7.46429L11.5356 0.393218C11.1466 0.00430884 10.5102 0.0043088 10.1213 0.393218C9.73243 0.782126 9.73243 1.41852 10.1213 1.80743L10.8284 2.51454L7.29291 6.05007C6.11911 7.22387 4.22407 7.22387 3.05027 6.05007L1.63606 7.46429L5.85748 11.6857L0.907737 16.6355L0.907738 18.0497H2.32195L7.2717 13.0999L11.5356 17.3638L12.9498 15.9496C11.776 14.7758 11.776 12.8807 12.9498 11.7069L16.4853 8.17139L17.1924 8.8785C17.5813 9.26741 18.2177 9.26741 18.6066 8.8785C18.9955 8.48959 18.9955 7.85319 18.6066 7.46429Z" fill="#48535B"/>
</svg>
