<svg width="24" height="24" viewBox="0 0 24 24" fill="none" xmlns="http://www.w3.org/2000/svg">
<g clip-path="url(#clip0)">
<path d="M10.5 6.24805V2.02305C10.416 2.01605 10.336 1.99805 10.25 1.99805H1.75C0.785 1.99805 0 2.78305 0 3.74805V11.248C0 11.524 0.152 11.778 0.396 11.909C0.507 11.969 0.628 11.998 0.75 11.998C0.895 11.998 1.04 11.956 1.165 11.873L3.674 10.206C3.87 10.072 4.113 9.99805 4.36 9.99805H10.25C11.043 9.99805 11.753 9.65605 12.256 9.11705C11.218 8.57405 10.5 7.49805 10.5 6.24805Z" fill="#0E73F6"/>
<path d="M23.25 10C23.104 10 22.96 9.958 22.834 9.874L20.338 8.21C20.132 8.072 19.893 8 19.645 8H13.75C12.785 8 12 7.215 12 6.25V1.75C12 0.785 12.785 0 13.75 0H22.25C23.215 0 24 0.785 24 1.75V9.25C24 9.526 23.848 9.781 23.604 9.911C23.493 9.971 23.371 10 23.25 10Z" fill="#0E73F6"/>
<path d="M5.49982 18C7.15667 18 8.49982 16.6569 8.49982 15C8.49982 13.3431 7.15667 12 5.49982 12C3.84296 12 2.49982 13.3431 2.49982 15C2.49982 16.6569 3.84296 18 5.49982 18Z" fill="#0E73F6"/>
<path d="M18.4999 18C20.1568 18 21.4999 16.6569 21.4999 15C21.4999 13.3431 20.1568 12 18.4999 12C16.8431 12 15.4999 13.3431 15.4999 15C15.4999 16.6569 16.8431 18 18.4999 18Z" fill="#0E73F6"/>
<path d="M8.25 19.002H2.75C1.233 19.002 0 20.235 0 21.7519V23.2519C0 23.6659 0.336 24.0019 0.75 24.0019H10.25C10.664 24.0019 11 23.6659 11 23.2519V21.7519C11 20.235 9.767 19.002 8.25 19.002Z" fill="#0E73F6"/>
<path d="M21.2501 19.002H15.7501C14.2331 19.002 13.0001 20.235 13.0001 21.7519V23.2519C13.0001 23.6659 13.3361 24.0019 13.7501 24.0019H23.2501C23.6641 24.0019 24.0001 23.6659 24.0001 23.2519V21.7519C24.0001 20.235 22.7671 19.002 21.2501 19.002Z" fill="#0E73F6"/>
</g>
<defs>
<clipPath id="clip0">
<rect width="24" height="24" fill="white"/>
</clipPath>
</defs>
</svg>
