<svg width="16" height="12" viewBox="0 0 16 12" fill="none" xmlns="http://www.w3.org/2000/svg">
<path d="M3.11669 5.88328L0.800024 8.20828C0.641691 8.37495 0.641691 8.63328 0.800024 8.79995L3.11669 11.125C3.37502 11.3916 3.82502 11.2 3.82502 10.8333V9.33328H8.83336C9.29169 9.33328 9.66669 8.95828 9.66669 8.49995C9.66669 8.04162 9.29169 7.66662 8.83336 7.66662H3.82502V6.17495C3.82502 5.79995 3.37502 5.61662 3.11669 5.88328ZM15.2084 3.20828L12.8917 0.883285C12.6334 0.616618 12.1834 0.808285 12.1834 1.17495V2.66662H7.16669C6.70836 2.66662 6.33336 3.04162 6.33336 3.49995C6.33336 3.95828 6.70836 4.33328 7.16669 4.33328H12.175V5.82495C12.175 6.19995 12.625 6.38329 12.8834 6.11662L15.2 3.79162C15.3667 3.63328 15.3667 3.36662 15.2084 3.20828Z" fill="black" fill-opacity="0.5"/>
</svg>
