<svg width="20" height="20" viewBox="0 0 20 20" fill="none" xmlns="http://www.w3.org/2000/svg">
<path d="M17.43 10.98C17.47 10.66 17.5 10.34 17.5 10C17.5 9.66 17.47 9.34 17.43 9.02L19.54 7.37C19.73 7.22 19.78 6.95 19.66 6.73L17.66 3.27C17.57 3.11 17.4 3.02 17.22 3.02C17.16 3.02 17.1 3.03 17.05 3.05L14.56 4.05C14.04 3.65 13.48 3.32 12.87 3.07L12.49 0.42C12.46 0.18 12.25 0 12 0H7.99999C7.74999 0 7.53999 0.18 7.50999 0.42L7.12999 3.07C6.51999 3.32 5.95999 3.66 5.43999 4.05L2.94999 3.05C2.88999 3.03 2.82999 3.02 2.76999 3.02C2.59999 3.02 2.42999 3.11 2.33999 3.27L0.339992 6.73C0.209992 6.95 0.269992 7.22 0.459992 7.37L2.56999 9.02C2.52999 9.34 2.49999 9.67 2.49999 10C2.49999 10.33 2.52999 10.66 2.56999 10.98L0.459992 12.63C0.269992 12.78 0.219992 13.05 0.339992 13.27L2.33999 16.73C2.42999 16.89 2.59999 16.98 2.77999 16.98C2.83999 16.98 2.89999 16.97 2.94999 16.95L5.43999 15.95C5.95999 16.35 6.51999 16.68 7.12999 16.93L7.50999 19.58C7.53999 19.82 7.74999 20 7.99999 20H12C12.25 20 12.46 19.82 12.49 19.58L12.87 16.93C13.48 16.68 14.04 16.34 14.56 15.95L17.05 16.95C17.11 16.97 17.17 16.98 17.23 16.98C17.4 16.98 17.57 16.89 17.66 16.73L19.66 13.27C19.78 13.05 19.73 12.78 19.54 12.63L17.43 10.98ZM15.45 9.27C15.49 9.58 15.5 9.79 15.5 10C15.5 10.21 15.48 10.43 15.45 10.73L15.31 11.86L16.2 12.56L17.28 13.4L16.58 14.61L15.31 14.1L14.27 13.68L13.37 14.36C12.94 14.68 12.53 14.92 12.12 15.09L11.06 15.52L10.9 16.65L10.7 18H9.29999L9.10999 16.65L8.94999 15.52L7.88999 15.09C7.45999 14.91 7.05999 14.68 6.65999 14.38L5.74999 13.68L4.68999 14.11L3.41999 14.62L2.71999 13.41L3.79999 12.57L4.68999 11.87L4.54999 10.74C4.51999 10.43 4.49999 10.2 4.49999 10C4.49999 9.8 4.51999 9.57 4.54999 9.27L4.68999 8.14L3.79999 7.44L2.71999 6.6L3.41999 5.39L4.68999 5.9L5.72999 6.32L6.62999 5.64C7.05999 5.32 7.46999 5.08 7.87999 4.91L8.93999 4.48L9.09999 3.35L9.29999 2H10.69L10.88 3.35L11.04 4.48L12.1 4.91C12.53 5.09 12.93 5.32 13.33 5.62L14.24 6.32L15.3 5.89L16.57 5.38L17.27 6.59L16.2 7.44L15.31 8.14L15.45 9.27ZM9.99999 6C7.78999 6 5.99999 7.79 5.99999 10C5.99999 12.21 7.78999 14 9.99999 14C12.21 14 14 12.21 14 10C14 7.79 12.21 6 9.99999 6ZM9.99999 12C8.89999 12 7.99999 11.1 7.99999 10C7.99999 8.9 8.89999 8 9.99999 8C11.1 8 12 8.9 12 10C12 11.1 11.1 12 9.99999 12Z" fill="#0E73F6"/>
</svg>
