<svg width="35" height="34" viewBox="0 0 35 34" fill="none" xmlns="http://www.w3.org/2000/svg">
<path d="M33.4332 14.9001L31.1666 12.2667C30.7332 11.7667 30.3832 10.8334 30.3832 10.1667V7.33339C30.3832 5.56672 28.9332 4.11672 27.1666 4.11672H24.3332C23.6832 4.11672 22.7332 3.76672 22.2332 3.33339L19.5999 1.06672C18.4499 0.0833903 16.5666 0.0833903 15.3999 1.06672L12.7832 3.35006C12.2832 3.76672 11.3332 4.11672 10.6832 4.11672H7.79989C6.03322 4.11672 4.58322 5.56672 4.58322 7.33339V10.1834C4.58322 10.8334 4.23322 11.7667 3.81655 12.2667L1.56655 14.9167C0.599886 16.0667 0.599886 17.9334 1.56655 19.0834L3.81655 21.7334C4.23322 22.2334 4.58322 23.1667 4.58322 23.8167V26.6667C4.58322 28.4334 6.03322 29.8834 7.79989 29.8834H10.6832C11.3332 29.8834 12.2832 30.2334 12.7832 30.6667L15.4166 32.9334C16.5666 33.9167 18.4499 33.9167 19.6166 32.9334L22.2499 30.6667C22.7499 30.2334 23.6832 29.8834 24.3499 29.8834H27.1832C28.9499 29.8834 30.3999 28.4334 30.3999 26.6667V23.8334C30.3999 23.1834 30.7499 22.2334 31.1832 21.7334L33.4499 19.1001C34.4166 17.9501 34.4166 16.0501 33.4332 14.9001ZM24.4332 13.8501L16.3832 21.9001C16.1499 22.1334 15.8332 22.2667 15.4999 22.2667C15.1666 22.2667 14.8499 22.1334 14.6166 21.9001L10.5832 17.8667C10.0999 17.3834 10.0999 16.5834 10.5832 16.1001C11.0666 15.6167 11.8666 15.6167 12.3499 16.1001L15.4999 19.2501L22.6666 12.0834C23.1499 11.6001 23.9499 11.6001 24.4332 12.0834C24.9166 12.5667 24.9166 13.3667 24.4332 13.8501Z" fill="white"/>
</svg>
