<svg width="34" height="26" viewBox="0 0 34 26" fill="none" xmlns="http://www.w3.org/2000/svg">
<path d="M4.22816 5.60767L0.77459 7.16707C0.298236 7.347 0.0600586 7.82681 0.0600586 8.30663C0.0600586 8.78645 0.35778 9.26626 0.77459 9.44619L3.33499 10.5858L9.28942 7.88679L4.22816 5.60767Z" fill="#4E7BAB"/>
<path d="M11.6705 9.08691L5.77563 11.7259L8.87194 13.1054L14.6477 10.4064L11.6705 9.08691Z" fill="#4E7BAB"/>
<path d="M17.0297 11.6057L11.3135 14.2447L16.4938 16.5838C16.6725 16.6438 16.8511 16.7038 17.0297 16.7038C17.2084 16.7038 17.387 16.6438 17.5656 16.5838L22.8055 14.2447L17.0297 11.6057Z" fill="#4E7BAB"/>
<path d="M14.5883 5.54792L11.6706 6.86742L6.60938 4.52832L9.4675 3.2688L14.5883 5.54792Z" fill="#4E7BAB"/>
<path d="M19.9474 8.00699L17.0297 9.38646L14.1121 8.00699L17.0297 6.6875L19.9474 8.00699Z" fill="#4E7BAB"/>
<path d="M22.329 9.08691L19.3518 10.4664L25.0681 13.1054L28.1644 11.7259L22.329 9.08691Z" fill="#4E7BAB"/>
<path d="M22.091 2.18916L16.9702 4.46829L11.9089 2.12918L16.4938 0.0899655C16.7916 -0.0299885 17.2084 -0.0299885 17.5061 0.0899655L22.091 2.18916Z" fill="#4E7BAB"/>
<path d="M27.3903 4.52832L22.3291 6.86742L19.4709 5.54792L24.5918 3.2688L27.3903 4.52832Z" fill="#4E7BAB"/>
<path d="M33.9398 8.30663C33.9398 8.78645 33.6421 9.26626 33.2253 9.44619L30.6649 10.5858L24.77 7.94677L29.8313 5.60767L33.2849 7.16707C33.6421 7.40698 33.9398 7.82681 33.9398 8.30663Z" fill="#4E7BAB"/>
<path d="M33.2257 11.7856L32.8685 11.6057L17.506 18.563C17.3274 18.623 17.1488 18.683 16.9701 18.683C16.7915 18.683 16.6129 18.623 16.4342 18.563L1.13134 11.6657L0.714532 11.8456C0.297722 12.0256 0 12.5054 0 12.9852C0 13.465 0.297722 13.9448 0.714532 14.1247L16.4938 21.202C16.6724 21.262 16.851 21.322 17.0297 21.322C17.2083 21.322 17.3869 21.262 17.5656 21.202L33.2257 14.1247C33.6425 13.9448 33.9403 13.465 33.9403 12.9852C33.9403 12.4454 33.6425 12.0256 33.2257 11.7856Z" fill="#4E7BAB"/>
<path d="M33.2262 16.5236L32.8094 16.3437L17.5065 23.241C17.3279 23.301 17.1493 23.361 16.9706 23.361C16.792 23.361 16.6134 23.301 16.4347 23.241L1.1914 16.2837L0.77459 16.5236C0.35778 16.7035 0.0600586 17.1833 0.0600586 17.6632C0.0600586 18.143 0.35778 18.6228 0.77459 18.8027L16.4943 25.88C16.6729 25.94 16.8516 26 17.0302 26C17.2088 26 17.3875 25.94 17.5661 25.88L33.2858 18.7427C33.7026 18.5628 34.0003 18.083 34.0003 17.6032C34.0003 17.1234 33.6431 16.7035 33.2262 16.5236Z" fill="#4E7BAB"/>
</svg>
