<svg width="205" height="172" viewBox="0 0 205 172" fill="none" xmlns="http://www.w3.org/2000/svg">
<path d="M30.6363 156.121C70.4017 176.897 134.872 176.897 174.633 156.121C214.394 135.344 214.398 101.659 174.633 80.8827C134.867 60.106 70.4017 60.1106 30.6363 80.8736C-9.12916 101.637 -9.12461 135.349 30.6363 156.121Z" fill="#F5F5F5"/>
<path d="M127.36 147.446L33.5153 93.2536C32.8593 92.8754 32.8593 92.2649 33.5153 91.8867L88.4917 60.1248C88.859 59.9394 89.2647 59.8428 89.6761 59.8428C90.0876 59.8428 90.4933 59.9394 90.8606 60.1248L184.705 114.345C185.361 114.718 185.361 115.333 184.705 115.712L129.71 147.469C129.344 147.649 128.94 147.741 128.532 147.737C128.124 147.733 127.723 147.633 127.36 147.446Z" fill="#E6E6E6"/>
<path d="M32.3171 132.725C45.9939 132.725 57.0811 127.44 57.0811 120.92C57.0811 114.4 45.9939 109.114 32.3171 109.114C18.6403 109.114 7.5531 114.4 7.5531 120.92C7.5531 127.44 18.6403 132.725 32.3171 132.725Z" fill="#EBEBEB"/>
<path d="M107.844 69.3196C109.001 69.3424 110.914 67.8434 111.206 65.9844C111.497 64.1254 112.048 62.6583 114.695 61.6559C117.342 60.6536 118.832 60.1979 119.679 57.8924C120.526 55.587 119.223 52.9899 118.854 51.0261C118.485 49.0623 120.303 46.7751 122.954 44.6154C125.606 42.4557 127.136 40.1776 124.777 38.8107C122.417 37.4438 119.474 38.0179 116.9 39.6718C114.326 41.3258 112.308 43.4946 109.156 43.2075C106.003 42.9205 104.222 44.2691 103.602 46.7523C102.983 49.2355 103.88 52.3839 101.53 53.163V63.7108L107.844 69.3196Z" fill="#0E73F6"/>
<path d="M103.07 64.5628H103.02C102.961 64.5497 102.91 64.5142 102.878 64.4639C102.846 64.4136 102.834 64.3526 102.846 64.294C105.256 53.8601 116.135 42.3099 122.012 39.9133C122.04 39.8984 122.071 39.8895 122.102 39.8873C122.134 39.885 122.166 39.8894 122.196 39.9002C122.225 39.911 122.253 39.9278 122.276 39.9498C122.299 39.9717 122.317 39.9982 122.329 40.0276C122.341 40.0569 122.347 40.0885 122.346 40.1202C122.345 40.152 122.338 40.1832 122.324 40.2119C122.311 40.2406 122.291 40.2662 122.267 40.2869C122.243 40.3077 122.215 40.3232 122.185 40.3325C116.395 42.6972 105.671 54.0925 103.293 64.3943C103.279 64.4428 103.25 64.4855 103.209 64.5159C103.169 64.5463 103.12 64.5628 103.07 64.5628Z" fill="white"/>
<path d="M109.13 52.0924C109.076 52.092 109.024 52.0726 108.983 52.0376C108.942 52.0026 108.915 51.9542 108.906 51.9011C108.588 50.1342 107.961 48.4374 107.052 46.8891C107.021 46.8375 107.011 46.7759 107.025 46.7172C107.038 46.6586 107.074 46.6075 107.125 46.5747C107.15 46.5588 107.178 46.5481 107.208 46.5432C107.238 46.5382 107.268 46.5392 107.297 46.5459C107.326 46.5527 107.354 46.5652 107.378 46.5826C107.403 46.6001 107.423 46.6222 107.439 46.6476C108.386 48.2505 109.035 50.012 109.353 51.8464C109.359 51.8758 109.358 51.9061 109.352 51.9355C109.346 51.9648 109.333 51.9925 109.316 52.0169C109.298 52.0412 109.276 52.0617 109.25 52.0771C109.224 52.0924 109.196 52.1023 109.166 52.1061L109.13 52.0924Z" fill="white"/>
<path d="M107.248 55.2627C107.197 55.2627 107.148 55.2462 107.108 55.2158C107.068 55.1854 107.038 55.1427 107.025 55.0941C107.017 55.0651 107.015 55.0349 107.019 55.0052C107.024 54.9755 107.034 54.9469 107.049 54.9211C107.064 54.8953 107.084 54.8727 107.108 54.8547C107.132 54.8367 107.16 54.8236 107.189 54.8162C110.769 53.8685 115.293 54.7752 115.484 54.8162C115.514 54.8222 115.543 54.834 115.568 54.851C115.593 54.868 115.615 54.8898 115.632 54.9152C115.649 54.9405 115.661 54.969 115.667 54.9989C115.672 55.0289 115.672 55.0597 115.666 55.0896C115.66 55.1195 115.649 55.1479 115.632 55.1733C115.615 55.1986 115.593 55.2204 115.568 55.2373C115.542 55.2543 115.514 55.266 115.484 55.2719C115.454 55.2778 115.423 55.2778 115.393 55.2718C115.348 55.2718 110.778 54.3606 107.302 55.2718C107.284 55.2733 107.265 55.2702 107.248 55.2627Z" fill="white"/>
<path d="M147.509 8.02442L149.254 8.6942V4.84869C149.254 1.79597 151.686 1.06241 154.329 2.57054C156.971 4.0969 159.112 7.80572 159.112 10.8584V11.4371C159.484 11.3214 159.878 11.292 160.263 11.3512C160.648 11.4104 161.015 11.5567 161.335 11.7788C162.336 12.4328 163.17 13.3136 163.767 14.3498C164.365 15.386 164.71 16.5485 164.774 17.743V17.9981L167.212 19.406C167.874 19.8352 168.425 20.4146 168.821 21.097C169.217 21.7795 169.446 22.5458 169.489 23.3336C169.489 24.7779 168.478 25.3657 167.212 24.6412L147.509 13.2505C146.847 12.8214 146.296 12.242 145.9 11.5595C145.504 10.877 145.275 10.1107 145.231 9.32296C145.24 7.88773 146.256 7.29997 147.509 8.02442Z" fill="#EBEBEB"/>
<path d="M167.303 9.30028L170.492 11.1228C170.492 10.9815 170.464 10.8449 170.464 10.7036V9.79691C170.464 8.16576 171.612 7.51877 173.025 8.32067C173.62 8.70003 174.127 9.20359 174.51 9.79691C174.742 7.74202 176.332 6.97657 178.309 8.10653C180.423 9.32761 182.14 12.2983 182.14 14.7405V16.1074C182.153 16.655 182.043 17.1985 181.817 17.6975L184.445 19.2148C184.859 19.4842 185.203 19.8474 185.45 20.2749C185.697 20.7024 185.84 21.1822 185.867 21.6752C185.867 22.5864 185.229 22.9464 184.445 22.4953L167.303 12.5808C166.889 12.3114 166.545 11.9482 166.298 11.5207C166.051 11.0932 165.908 10.6134 165.881 10.1204C165.863 9.21371 166.501 8.8492 167.303 9.30028Z" fill="#EBEBEB"/>
<path d="M102.673 10.6844L119.292 1.08887L122.991 3.22577L119.292 9.63647L102.673 19.232V10.6844Z" fill="#455A64"/>
<path d="M119.292 1.08831L117.438 0.0175781L100.787 9.63591L102.673 10.6839L119.292 1.08831Z" fill="#37474F"/>
<path d="M105.083 14.9806C104.939 15.0398 104.783 15.0678 104.627 15.0626C104.586 15.0626 104.573 15.0626 104.573 15.0307C104.569 15.0096 104.569 14.9879 104.573 14.9669L104.714 14.6662C104.724 14.6404 104.74 14.617 104.76 14.5978H104.819C104.943 14.5954 105.065 14.5755 105.183 14.5386C105.332 14.4938 105.474 14.431 105.607 14.3518C105.777 14.2626 105.931 14.1455 106.063 14.0055C106.155 13.8938 106.206 13.754 106.209 13.6091C106.212 13.578 106.209 13.5465 106.2 13.5166C106.191 13.4867 106.175 13.4592 106.154 13.436C106.105 13.405 106.047 13.3921 105.99 13.3995C105.873 13.4087 105.758 13.4254 105.644 13.4496H105.548C105.398 13.4785 105.245 13.4953 105.092 13.4998C104.984 13.5047 104.877 13.4708 104.792 13.4041C104.748 13.3601 104.715 13.307 104.695 13.2488C104.674 13.1905 104.667 13.1284 104.673 13.0669C104.683 12.7845 104.788 12.5135 104.969 12.2969C105.183 12.0274 105.448 11.8029 105.748 11.6362C105.91 11.5406 106.081 11.4613 106.259 11.3993C106.378 11.3569 106.506 11.3413 106.632 11.3537C106.664 11.3537 106.682 11.3537 106.682 11.3993C106.687 11.4172 106.687 11.4361 106.682 11.454L106.546 11.7547C106.535 11.7779 106.522 11.7994 106.505 11.8185C106.487 11.8233 106.468 11.8233 106.45 11.8185C106.207 11.8249 105.972 11.9008 105.771 12.0372C105.615 12.1202 105.477 12.2332 105.366 12.3698C105.277 12.4796 105.229 12.6162 105.229 12.7571C105.222 12.7879 105.224 12.8198 105.233 12.8499C105.242 12.88 105.259 12.9071 105.282 12.9287C105.305 12.9503 105.333 12.9655 105.364 12.973C105.394 12.9804 105.426 12.9798 105.457 12.9712C105.576 12.9598 105.695 12.9415 105.812 12.9166H105.921C106.08 12.8829 106.242 12.8646 106.404 12.8619C106.455 12.86 106.505 12.8684 106.552 12.8864C106.599 12.9044 106.642 12.9317 106.678 12.9667C106.751 13.0647 106.785 13.1866 106.774 13.3084C106.765 13.5785 106.668 13.8382 106.496 14.0465C106.284 14.3174 106.018 14.5423 105.716 14.7072C105.515 14.8191 105.303 14.9107 105.083 14.9806Z" fill="white"/>
<path d="M107.447 13.2858C107.192 13.1674 107.069 12.8667 107.069 12.3746C107.066 11.9027 107.197 11.4395 107.447 11.0396C107.719 10.6169 108.094 10.2703 108.536 10.0326C108.992 9.76382 109.361 9.68636 109.612 9.80483C109.862 9.92329 109.994 10.224 109.994 10.7161C109.997 11.1899 109.864 11.6547 109.612 12.0556C109.343 12.4747 108.973 12.8194 108.536 13.058C108.081 13.3314 107.698 13.4043 107.447 13.2858ZM109.206 11.9827C109.368 11.6871 109.45 11.354 109.443 11.0168C109.443 10.6523 109.366 10.4245 109.206 10.3242C109.047 10.224 108.823 10.265 108.527 10.4382C108.242 10.5972 108.004 10.8301 107.839 11.1125C107.688 11.4096 107.614 11.7404 107.625 12.0739C107.625 12.4384 107.703 12.6662 107.857 12.7664C108.012 12.8667 108.245 12.8256 108.545 12.6525C108.823 12.4936 109.051 12.262 109.206 11.9827Z" fill="white"/>
<path d="M110.996 11.4996C110.917 11.5173 110.835 11.5167 110.756 11.4977C110.677 11.4788 110.603 11.442 110.541 11.3903C110.482 11.3242 110.438 11.2468 110.41 11.163C110.383 11.0792 110.373 10.9906 110.381 10.9028V9.18504C110.378 9.13533 110.391 9.08599 110.418 9.0438C110.447 8.99753 110.488 8.9598 110.536 8.93445L110.764 8.80687C110.78 8.7921 110.8 8.78116 110.821 8.77486C110.843 8.76856 110.865 8.76704 110.887 8.77042C110.887 8.77042 110.923 8.81598 110.923 8.87066V10.5975C110.923 10.8208 110.987 10.9529 111.119 10.9893C111.217 11.002 111.317 10.9953 111.412 10.9695C111.508 10.9437 111.597 10.8993 111.675 10.839C111.893 10.7198 112.081 10.5532 112.226 10.3515C112.355 10.1721 112.423 9.9569 112.422 9.73636V8.00496C112.422 7.9555 112.434 7.9068 112.459 7.86372C112.491 7.81837 112.533 7.78096 112.582 7.75436L112.805 7.62679C112.914 7.563 112.969 7.58123 112.969 7.68602V9.40374C112.968 9.63774 112.913 9.86839 112.81 10.0781C112.692 10.3147 112.538 10.5314 112.354 10.7205C112.155 10.9243 111.928 11.0991 111.68 11.2399C111.472 11.3725 111.239 11.4609 110.996 11.4996Z" fill="white"/>
<path d="M114.217 9.67204C114.19 9.67204 114.176 9.63103 114.176 9.57636V7.25265L113.429 7.68094C113.374 7.71283 113.338 7.7265 113.315 7.71283C113.292 7.69917 113.283 7.67183 113.283 7.61715V7.51691C113.281 7.46927 113.292 7.42191 113.315 7.38022C113.345 7.33763 113.384 7.30192 113.429 7.27543L115.47 6.09991C115.487 6.0868 115.506 6.07722 115.526 6.07173C115.546 6.06625 115.568 6.06498 115.589 6.06801C115.589 6.06801 115.62 6.11358 115.62 6.16369V6.28216C115.623 6.32837 115.612 6.37431 115.589 6.41429C115.558 6.45801 115.517 6.4939 115.47 6.51908L114.723 6.94738V9.27564C114.723 9.32359 114.71 9.37068 114.686 9.41233C114.656 9.46088 114.611 9.49902 114.559 9.52168L114.34 9.65382C114.281 9.67204 114.24 9.68115 114.217 9.67204Z" fill="white"/>
<path d="M115.989 8.64723C115.966 8.64723 115.957 8.60166 115.957 8.55154V5.96356C115.955 5.91451 115.966 5.86583 115.989 5.82232C116.023 5.77957 116.065 5.74395 116.112 5.71753L116.34 5.58539C116.395 5.5535 116.436 5.53983 116.463 5.5535C116.49 5.56717 116.499 5.5945 116.499 5.64918V6.72447L117.898 5.918V4.84271C117.898 4.79325 117.91 4.74455 117.935 4.70147C117.967 4.65497 118.011 4.61738 118.062 4.59212L118.281 4.46454C118.34 4.42809 118.381 4.41898 118.404 4.42809C118.427 4.4372 118.445 4.47365 118.445 4.52833V7.11631C118.445 7.16288 118.433 7.20864 118.408 7.24844C118.376 7.29623 118.332 7.33533 118.281 7.36235L118.062 7.48993C118.003 7.52182 117.962 7.53549 117.935 7.52182C117.907 7.50815 117.898 7.48081 117.898 7.43069V6.32807L116.499 7.13909V8.23716C116.501 8.28537 116.489 8.33306 116.463 8.37385C116.432 8.42016 116.39 8.4578 116.34 8.4832L116.112 8.61533C116.095 8.62856 116.075 8.6382 116.054 8.64368C116.033 8.64915 116.011 8.65036 115.989 8.64723Z" fill="white"/>
<path d="M100.751 20.2889L84.132 10.6934L80.4283 12.8303L84.132 19.241L100.751 28.8365V20.2889Z" fill="#455A64"/>
<path d="M84.1326 10.6931L85.9821 9.62695L102.637 19.2407L100.751 20.2887L84.1326 10.6931Z" fill="#37474F"/>
<path d="M85.7045 17.5406C85.6774 17.5076 85.6586 17.4685 85.6499 17.4266L84.8753 14.2874C84.8725 14.2738 84.8725 14.2599 84.8753 14.2464C84.8753 14.2053 84.9026 14.2008 84.9664 14.2464L85.3674 14.4787C85.4047 14.4991 85.4385 14.5252 85.4676 14.5562C85.4876 14.5833 85.5016 14.6144 85.5086 14.6473L86.0007 16.807L86.593 15.4948C86.595 15.4839 86.6006 15.4739 86.6088 15.4665C86.617 15.4591 86.6275 15.4546 86.6386 15.4538C86.6386 15.4538 86.6841 15.4538 86.7297 15.4857L86.9575 15.6178C86.9931 15.6347 87.0243 15.6597 87.0486 15.6907C87.0691 15.7198 87.0845 15.7521 87.0942 15.7864L87.6911 17.782L88.1741 16.1873C88.1741 16.16 88.1968 16.1463 88.2196 16.1463C88.256 16.1479 88.291 16.1607 88.3199 16.1828L88.7208 16.4152C88.7846 16.4516 88.8165 16.4926 88.8165 16.5336C88.8194 16.5456 88.8194 16.5581 88.8165 16.5701L88.0374 18.7753C88.0374 18.8072 88.0055 18.8254 87.9827 18.8254C87.9436 18.8233 87.9059 18.8107 87.8733 18.789L87.6091 18.6341C87.57 18.6125 87.5346 18.5848 87.5043 18.5521C87.4774 18.5166 87.4573 18.4764 87.445 18.4336L86.8527 16.3833L86.2604 17.7501C86.2604 17.782 86.2285 17.8003 86.2057 17.8003C86.1671 17.796 86.1298 17.7836 86.0964 17.7638L85.8276 17.6043C85.7823 17.5925 85.7403 17.5707 85.7045 17.5406Z" fill="white"/>
<path d="M89.339 19.6052C89.3118 19.5631 89.2975 19.514 89.298 19.4639V16.876C89.298 16.8213 89.3117 16.7894 89.339 16.7803C89.3663 16.7803 89.4119 16.7803 89.4802 16.8258L91.526 18.0059C91.5794 18.0333 91.6261 18.0722 91.6627 18.1198C91.6875 18.161 91.7001 18.2084 91.6991 18.2565V18.3704C91.6991 18.4251 91.6991 18.457 91.6627 18.4661C91.6262 18.4752 91.5943 18.4661 91.526 18.4251L89.9267 17.5138V18.3431L91.0886 19.0129C91.1421 19.0401 91.1888 19.079 91.2253 19.1268C91.2535 19.1666 91.2679 19.2146 91.2663 19.2634V19.3637C91.2663 19.4138 91.2663 19.4457 91.2253 19.4548C91.1763 19.458 91.1278 19.4434 91.0886 19.4138L89.9267 18.744V19.5733L91.5214 20.4845C91.5776 20.5118 91.6261 20.5525 91.6627 20.603C91.6875 20.6442 91.7001 20.6916 91.6991 20.7397V20.8536C91.6991 20.9083 91.6991 20.9356 91.6627 20.9447C91.6122 20.9433 91.5632 20.9275 91.5214 20.8992L89.4802 19.7191C89.4246 19.6931 89.3761 19.654 89.339 19.6052Z" fill="white"/>
<path d="M92.6418 21.5459C92.4454 21.4 92.2652 21.2335 92.1042 21.0493C92.0586 20.9992 92.0404 20.9673 92.0404 20.9445C92.0372 20.9381 92.0355 20.9311 92.0355 20.924C92.0355 20.9169 92.0372 20.9099 92.0404 20.9035L92.2044 20.7759C92.2116 20.7704 92.2204 20.7674 92.2295 20.7674C92.2386 20.7674 92.2474 20.7704 92.2545 20.7759C92.2809 20.7911 92.3041 20.8112 92.3229 20.8351C92.4517 20.977 92.5919 21.1081 92.7421 21.227C92.8958 21.353 93.0587 21.4672 93.2296 21.5687C93.3821 21.6698 93.5546 21.7366 93.7354 21.7646C93.8493 21.7646 93.9039 21.6963 93.9039 21.5505C93.9056 21.4656 93.8835 21.382 93.8402 21.309C93.7887 21.2221 93.7258 21.1424 93.6533 21.0721C93.5713 20.987 93.4392 20.8594 93.2569 20.6893L93.143 20.5891C92.9289 20.3886 92.7512 20.2155 92.6145 20.0697C92.4809 19.9325 92.3646 19.7795 92.2682 19.6141C92.1791 19.4685 92.1303 19.3018 92.127 19.1311C92.127 18.8714 92.2409 18.7347 92.4687 18.7256C92.7947 18.7453 93.1095 18.8523 93.38 19.0354C93.5843 19.1547 93.7806 19.2871 93.9677 19.4318C94.1257 19.5551 94.2694 19.6957 94.396 19.851C94.4265 19.8786 94.4473 19.9154 94.4553 19.9558C94.4585 19.9613 94.4601 19.9676 94.4601 19.974C94.4601 19.9804 94.4585 19.9867 94.4553 19.9922L94.2958 20.1244C94.2889 20.1284 94.281 20.1305 94.273 20.1305C94.265 20.1305 94.2571 20.1284 94.2502 20.1244C94.2248 20.1062 94.2018 20.0847 94.1819 20.0606C93.9569 19.8113 93.6939 19.5991 93.4027 19.4318C93.267 19.3391 93.1105 19.2812 92.9471 19.2632C92.8423 19.2632 92.7922 19.3407 92.7922 19.4819C92.7905 19.5697 92.8126 19.6563 92.856 19.7325C92.9107 19.8225 92.9765 19.9051 93.0519 19.9786C93.1339 20.0651 93.2752 20.1927 93.4665 20.3658L93.585 20.4798C93.8265 20.6985 94.0133 20.8853 94.15 21.0311C94.2727 21.1688 94.3768 21.322 94.4598 21.4867C94.5325 21.6277 94.5715 21.7837 94.5737 21.9423C94.5737 22.1884 94.4644 22.3205 94.2548 22.3387C93.9278 22.3236 93.6119 22.2162 93.3435 22.0289C93.0993 21.8834 92.8649 21.7221 92.6418 21.5459Z" fill="white"/>
<path d="M95.7807 23.3279C95.7496 23.2875 95.7334 23.2376 95.7352 23.1866V20.8584L94.8695 20.3617C94.8173 20.3345 94.7709 20.2973 94.7328 20.2524C94.708 20.2112 94.6954 20.1638 94.6963 20.1157V20.0018C94.6963 19.9471 94.6963 19.9152 94.7328 19.9015C94.7692 19.8879 94.8057 19.9015 94.8695 19.9471L97.2251 21.314C97.2777 21.3426 97.3241 21.3813 97.3618 21.4279C97.3882 21.4701 97.4009 21.5194 97.3982 21.5691V21.6831C97.3982 21.7377 97.3982 21.7696 97.3618 21.7742C97.3253 21.7787 97.2889 21.7742 97.2251 21.7286L96.3594 21.232V23.5602C96.3594 23.6104 96.3594 23.6423 96.3184 23.6514C96.2658 23.6551 96.2137 23.6388 96.1726 23.6058L95.9174 23.46C95.8625 23.4268 95.8158 23.3816 95.7807 23.3279Z" fill="white"/>
<path d="M102.669 1.81676C102.649 1.6547 102.588 1.50044 102.492 1.36878C102.395 1.23713 102.266 1.13251 102.118 1.06497C101.705 0.855968 101.248 0.74707 100.785 0.74707C100.322 0.74707 99.8656 0.855968 99.4524 1.06497C99.3038 1.13251 99.175 1.23713 99.0785 1.36878C98.9819 1.50044 98.9209 1.6547 98.9011 1.81676V102.128H102.678V1.81676H102.669Z" fill="#455A64"/>
<path d="M135.947 77.603L113.739 71.1923L90.7284 51.7734C90.4142 51.5325 90.038 51.3857 89.6437 51.3502C89.2493 51.3147 88.853 51.392 88.5008 51.5729L33.497 83.3348C33.3539 83.4028 33.231 83.5069 33.1405 83.6369C33.0499 83.7668 32.9948 83.9181 32.9805 84.0759C32.9662 84.2337 32.9934 84.3925 33.0592 84.5366C33.125 84.6807 33.2272 84.8051 33.3558 84.8976L56.3704 104.317L78.5788 110.727L102.614 131.03L127.214 139.154C128.045 139.375 128.928 139.284 129.697 138.899L132.216 137.441L184.7 107.137C185.352 106.763 185.302 106.262 184.587 106.025L159.987 97.9058L135.947 77.603Z" fill="#455A64"/>
<path d="M113.739 71.1924L56.3705 104.317L78.5788 110.727L135.947 77.6031L113.739 71.1924Z" fill="#455A64"/>
<path d="M102.614 131.03L127.214 139.154C128.045 139.376 128.929 139.284 129.697 138.895L184.7 107.137C185.352 106.764 185.302 106.262 184.587 106.026L159.987 97.9062L102.614 131.03Z" fill="#455A64"/>
<path d="M110.036 73.3288L88.9892 55.5684L39.0239 84.4188L60.0751 102.179L110.036 73.3288Z" fill="#E0E0E0"/>
<path d="M132.243 79.7398L82.2824 108.59L60.0741 102.18L110.035 73.3291L132.243 79.7398Z" fill="#E0E0E0"/>
<g style="mix-blend-mode:multiply" opacity="0.5">
<g style="mix-blend-mode:multiply" opacity="0.5">
<path d="M132.243 79.7398L82.2824 108.59L60.0741 102.18L110.035 73.3291L132.243 79.7398Z" fill="#E0E0E0"/>
</g>
</g>
<path d="M156.297 100.043L106.336 128.894L82.2825 108.591L132.243 79.7402L156.297 100.043Z" fill="#E0E0E0"/>
<path d="M177.498 107.036L127.533 135.886L106.336 128.892L156.297 100.042L177.498 107.036Z" fill="#E0E0E0"/>
<g style="mix-blend-mode:multiply" opacity="0.5">
<g style="mix-blend-mode:multiply" opacity="0.5">
<path d="M177.498 107.036L127.533 135.886L106.336 128.892L156.297 100.042L177.498 107.036Z" fill="#E0E0E0"/>
</g>
</g>
<path d="M51.21 94.7031L58.2255 90.4293L47.1236 79.7402L39.0239 84.4196L51.21 94.7031Z" fill="#F0F0F0"/>
<path d="M60.0741 89.3588L48.9722 78.6743L65.6273 69.0195L76.7292 79.7405L60.0741 89.3588Z" fill="#F0F0F0"/>
<path d="M67.4769 67.9887L78.5788 78.6732L84.132 75.4655L82.2824 59.4365L67.4769 67.9887Z" fill="#F0F0F0"/>
<path d="M85.9816 74.3995L84.132 58.3705L88.9882 55.5684L107.028 70.7909L85.9816 74.3995Z" fill="#F0F0F0"/>
<path d="M66.5521 98.4432L60.9989 93.0986L54.0608 97.1036L60.0741 102.179L66.5521 98.4432Z" fill="#F0F0F0"/>
<path d="M62.8484 92.0278L68.4017 97.3724L85.0386 87.7677L79.499 82.4141L62.8484 92.0278Z" fill="#F0F0F0"/>
<path d="M86.9064 86.6885L81.3531 81.344L86.4372 78.4097L97.0835 76.5371V80.8109L86.9064 86.6885Z" fill="#F0F0F0"/>
<path d="M98.933 79.7398V76.2086L107.73 74.6641L98.933 79.7398Z" fill="#F0F0F0"/>
<path d="M108.19 82.9478C106.144 82.3555 103.243 82.5969 101.712 83.4808C100.181 84.3648 100.591 85.563 102.623 86.1508C104.655 86.7386 107.566 86.5062 109.101 85.6177C110.636 84.7293 110.231 83.5355 108.19 82.9478Z" fill="#E6E6E6"/>
<path d="M102.158 81.7862C101.76 81.9155 101.375 82.0849 101.01 82.292C99.3977 83.2032 99.3567 84.4334 99.4159 84.9118C99.4507 85.1932 99.5388 85.4654 99.6756 85.7138L95.2157 88.2835L86.8881 86.6842L97.0652 80.8066L102.158 81.7862Z" fill="#E6E6E6"/>
<path d="M98.933 79.7398L104.641 80.7285L107.566 81.134L117.438 75.466L110.035 73.3291L98.933 79.7398Z" fill="#E6E6E6"/>
<path d="M132.225 79.7403L118.331 87.7639L110.053 86.6294C111.397 85.7181 111.42 84.6337 111.374 84.1827C111.339 83.9035 111.252 83.6333 111.119 83.3853L122.358 76.8926L132.225 79.7403Z" fill="#E6E6E6"/>
<path d="M116.677 88.7298L110.039 92.5617L98.9056 90.443L103.525 87.7639L103.561 87.7411C104.081 87.8113 104.604 87.8463 105.129 87.8459C106.199 87.8547 107.266 87.7089 108.295 87.4131L116.677 88.7298Z" fill="#E6E6E6"/>
<path d="M85.0386 87.7676L68.4017 97.3722L76.7292 98.9761L93.3707 89.3623L85.0386 87.7676Z" fill="#E6E6E6"/>
<path d="M110.039 92.5656L98.9148 90.4287L82.2734 100.042L93.3844 102.179L110.039 92.5656Z" fill="#E6E6E6"/>
<path d="M66.5521 98.4434L60.0741 102.18L67.4769 104.316L74.8796 100.043L66.5521 98.4434Z" fill="#E6E6E6"/>
<path d="M91.5348 103.25L80.4238 101.113L72.4106 105.742L82.2825 108.59L91.5348 103.25Z" fill="#E6E6E6"/>
<path d="M121.141 92.5664L127.323 103.953L143.345 94.7033L128.544 88.2881L121.141 92.5664Z" fill="#F0F0F0"/>
<path d="M91.5348 103.251L93.3844 106.454L92.8058 117.476L82.2825 108.591L91.5348 103.251Z" fill="#F0F0F0"/>
<path d="M93.3843 102.18L95.2339 105.387L118.44 91.9873L116.677 88.7295L93.3843 102.18Z" fill="#F0F0F0"/>
<path d="M118.349 87.7684L120.217 90.9624L135.25 82.2781L132.243 79.7402L118.349 87.7684Z" fill="#F0F0F0"/>
<path d="M119.292 93.6318L96.1587 106.991L95.5619 119.803L97.3158 121.279L125.487 105.013L119.292 93.6318Z" fill="#F0F0F0"/>
<path d="M130.394 87.2212L136.753 83.5488L147.277 92.429L145.199 93.6319L130.394 87.2212Z" fill="#F0F0F0"/>
<path d="M100.322 123.817L108.185 119.279L111.889 125.69L106.336 128.893L100.322 123.817Z" fill="#F0F0F0"/>
<path d="M117.437 113.936L110.036 118.21L113.737 124.622L121.138 120.348L117.437 113.936Z" fill="#F0F0F0"/>
<path d="M119.292 112.869L127.259 108.263L130.804 114.765L122.991 119.28L119.292 112.869Z" fill="#F0F0F0"/>
<path d="M132.626 113.716L129.091 107.21L145.199 97.9058L153.294 97.5049L156.297 100.043L132.626 113.716Z" fill="#F0F0F0"/>
<path d="M148.78 93.7002L145.199 95.7687L150.972 95.5455L148.78 93.7002Z" fill="#F0F0F0"/>
<path d="M141.609 117.207C139.569 116.619 136.667 116.856 135.136 117.74C133.605 118.624 134.015 119.822 136.047 120.414C138.079 121.006 140.99 120.765 142.525 119.881C144.06 118.997 143.655 117.781 141.609 117.207Z" fill="#E6E6E6"/>
<path d="M111.889 125.69L119.292 127.827L113.401 131.226L106.336 128.893L111.889 125.69Z" fill="#E6E6E6"/>
<path d="M113.739 124.62L121.141 126.756L128.544 122.483L121.141 120.346L113.739 124.62Z" fill="#E6E6E6"/>
<path d="M122.991 119.279L130.403 121.425L132.867 119.999C132.867 119.999 131.697 117.384 135.145 116.29L130.795 114.777L122.991 119.279Z" fill="#E6E6E6"/>
<path d="M132.626 113.717L137.181 115.357C138.41 115.208 139.652 115.208 140.881 115.357L154.452 107.525L147.049 105.388L132.626 113.717Z" fill="#E6E6E6"/>
<path d="M148.898 104.316L156.301 106.453L163.367 102.375L156.297 100.042L148.898 104.316Z" fill="#E6E6E6"/>
<path d="M168.077 103.93L156.301 110.728L165.553 113.935L177.498 107.037L168.077 103.93Z" fill="#E6E6E6"/>
<path d="M154.452 111.798L144.721 117.416C144.721 117.416 145.914 119.27 144.388 120.737L150.766 122.482L163.722 115.005L154.693 111.925" fill="#E6E6E6"/>
<path d="M148.898 123.553L142.325 121.881C142.325 121.881 139.159 123.12 136.494 122.154L126.69 127.813L124.84 134.989L127.533 135.873L148.898 123.553Z" fill="#E6E6E6"/>
<path d="M124.84 128.894L123.292 134.489L118.112 132.78L124.84 128.894Z" fill="#E6E6E6"/>
<path d="M116.677 111.812C116.598 111.812 116.52 111.791 116.451 111.752C116.383 111.713 116.325 111.657 116.285 111.589C116.224 111.485 116.206 111.361 116.236 111.244C116.266 111.127 116.341 111.026 116.445 110.965L126.189 105.219L117.146 88.7025L108.636 87.3629C108.544 87.3486 108.459 87.3064 108.391 87.2419C108.324 87.1775 108.278 87.0939 108.26 87.0026C108.241 86.9112 108.251 86.8163 108.289 86.7309C108.326 86.6454 108.388 86.5734 108.468 86.5246C109.73 85.7546 110.363 85.0256 110.29 84.4105C110.217 83.7954 109.506 83.2076 108.331 82.752C106.582 82.0776 102.965 82.2963 101.402 83.5129C101.021 83.7642 100.754 84.1558 100.659 84.6027C100.564 85.0497 100.65 85.5159 100.896 85.9004C100.93 85.9517 100.954 86.0094 100.965 86.07C100.976 86.1305 100.975 86.1927 100.961 86.2528C100.947 86.3128 100.922 86.3695 100.885 86.4193C100.849 86.4692 100.804 86.5112 100.751 86.5428L96.0585 89.3814C95.9636 89.4366 95.8526 89.4575 95.7441 89.4406L85.8814 87.6728C85.7905 87.6536 85.7069 87.6095 85.6399 87.5452L75.6906 77.5214C75.6057 77.436 75.5581 77.3205 75.5581 77.2001C75.5581 77.0798 75.6057 76.9643 75.6906 76.8789C75.7329 76.8362 75.7833 76.8023 75.8388 76.7792C75.8943 76.756 75.9539 76.7441 76.014 76.7441C76.0742 76.7441 76.1337 76.756 76.1892 76.7792C76.2447 76.8023 76.2951 76.8362 76.3375 76.8789L86.2139 86.798L95.7806 88.5111L99.9626 85.9824C99.7214 85.4275 99.6804 84.8061 99.8466 84.2244C100.013 83.6426 100.376 83.1367 100.874 82.793C102.696 81.3896 106.687 81.1299 108.691 81.8817C109.602 82.228 111.115 83.0026 111.228 84.3057C111.301 85.0802 110.859 85.8548 109.912 86.6157L117.52 87.814C117.589 87.8244 117.656 87.8508 117.713 87.8911C117.771 87.9314 117.819 87.9846 117.852 88.0464L127.214 105.169C127.27 105.273 127.285 105.394 127.253 105.508C127.222 105.622 127.147 105.719 127.045 105.779L116.923 111.748C116.849 111.792 116.763 111.814 116.677 111.812Z" fill="#0E73F6"/>
<path d="M79.0253 63.3054L77.4673 62.3941C76.7201 61.8975 75.6906 61.9385 74.5471 62.5764C72.2694 63.884 70.4471 67.2101 70.4471 69.9986V70.6364C70.4471 73.4249 74.1964 76.4594 74.1964 76.4594L75.7316 77.3296C75.7316 77.3296 74.8205 76.2771 74.9161 76.063C75.9184 73.999 78.6563 68.1715 78.6563 65.8933V65.26C78.6612 64.7983 78.6014 64.3382 78.4786 63.8931L78.6563 63.9934L79.0253 63.3054ZM74.5471 69.707C73.4128 70.3585 72.4926 69.83 72.4926 68.5223C73.103 68.4266 74.6383 65.7885 74.5471 64.9639C75.6815 64.3123 76.5971 64.8408 76.5971 66.1485C76.5578 66.8607 76.3518 67.5538 75.9957 68.1718C75.6397 68.7899 75.1435 69.3157 74.5471 69.707Z" fill="#0E73F6"/>
<path d="M79.0253 63.3054L77.4673 62.3941C76.7201 61.8975 75.6906 61.9385 74.5471 62.5764C72.2694 63.884 70.4471 67.2101 70.4471 69.9986V70.6364C70.4471 73.4249 74.1964 76.4594 74.1964 76.4594L75.7316 77.3296C75.7316 77.3296 74.8205 76.2771 74.9161 76.063C75.9184 73.999 78.6563 68.1715 78.6563 65.8933V65.26C78.6612 64.7983 78.6014 64.3382 78.4786 63.8931L78.6563 63.9934L79.0253 63.3054ZM74.5471 69.707C73.4128 70.3585 72.4926 69.83 72.4926 68.5223C73.103 68.4266 74.6383 65.7885 74.5471 64.9639C75.6815 64.3123 76.5971 64.8408 76.5971 66.1485C76.5578 66.8607 76.3518 67.5538 75.9957 68.1718C75.6397 68.7899 75.1435 69.3157 74.5471 69.707Z" fill="#0E73F6"/>
<g opacity="0.2">
<path opacity="0.2" d="M79.0253 63.3054L77.4673 62.3941C76.7201 61.8975 75.6906 61.9385 74.5471 62.5764C72.2694 63.884 70.4471 67.2101 70.4471 69.9986V70.6364C70.4471 73.4249 74.1964 76.4594 74.1964 76.4594L75.7316 77.3296C75.7316 77.3296 74.8205 76.2771 74.9161 76.063C75.9184 73.999 78.6563 68.1715 78.6563 65.8933V65.26C78.6612 64.7983 78.6014 64.3382 78.4786 63.8931L78.6563 63.9934L79.0253 63.3054ZM74.5471 69.707C73.4128 70.3585 72.4926 69.83 72.4926 68.5223C73.103 68.4266 74.6383 65.7885 74.5471 64.9639C75.6815 64.3123 76.5971 64.8408 76.5971 66.1485C76.5578 66.8607 76.3518 67.5538 75.9957 68.1718C75.6397 68.7899 75.1435 69.3157 74.5471 69.707Z" fill="black"/>
</g>
<path d="M80.2917 66.2258C80.2917 63.4374 78.4695 62.2345 76.1917 63.5422C73.9139 64.8498 72.0917 68.1759 72.0917 70.9689V71.6022C72.0917 73.7528 74.5243 76.2451 75.645 77.2794C75.7086 77.3378 75.785 77.3806 75.868 77.4044C75.9511 77.4282 76.0385 77.4322 76.1234 77.4163C76.2083 77.4004 76.2883 77.3649 76.3571 77.3127C76.4259 77.2604 76.4816 77.1929 76.5197 77.1153C77.4855 75.1379 80.3008 69.1737 80.3008 66.8637L80.2917 66.2258ZM76.1917 70.6545C75.0573 71.3106 74.1417 70.7775 74.1417 69.4699C74.181 68.7577 74.387 68.0646 74.7431 67.4465C75.0991 66.8285 75.5953 66.3027 76.1917 65.9114C77.326 65.2599 78.2462 65.7884 78.2462 67.1006C78.2057 67.8125 77.9987 68.5049 77.6418 69.1221C77.285 69.7394 76.7883 70.2642 76.1917 70.6545Z" fill="#0E73F6"/>
<path d="M119.57 97.9332L118.012 97.0219C117.265 96.5253 116.235 96.5435 115.092 97.2042C112.814 98.5118 110.992 101.838 110.992 104.626V105.264C110.992 108.053 114.741 111.087 114.741 111.087L116.276 111.957C116.276 111.957 115.365 110.905 115.461 110.691C116.463 108.627 119.201 102.799 119.201 100.521V99.8878C119.206 99.4261 119.146 98.966 119.023 98.5209L119.201 98.6212L119.57 97.9332ZM115.092 104.335C113.957 104.986 113.037 104.458 113.037 103.15C113.647 103.054 115.183 100.416 115.092 99.5916C116.226 98.9401 117.142 99.4686 117.142 100.776C117.102 101.489 116.896 102.182 116.54 102.8C116.184 103.418 115.688 103.944 115.092 104.335Z" fill="#0E73F6"/>
<path d="M119.57 97.9332L118.012 97.0219C117.265 96.5253 116.235 96.5435 115.092 97.2042C112.814 98.5118 110.992 101.838 110.992 104.626V105.264C110.992 108.053 114.741 111.087 114.741 111.087L116.276 111.957C116.276 111.957 115.365 110.905 115.461 110.691C116.463 108.627 119.201 102.799 119.201 100.521V99.8878C119.206 99.4261 119.146 98.966 119.023 98.5209L119.201 98.6212L119.57 97.9332ZM115.092 104.335C113.957 104.986 113.037 104.458 113.037 103.15C113.647 103.054 115.183 100.416 115.092 99.5916C116.226 98.9401 117.142 99.4686 117.142 100.776C117.102 101.489 116.896 102.182 116.54 102.8C116.184 103.418 115.688 103.944 115.092 104.335Z" fill="#0E73F6"/>
<g opacity="0.2">
<path opacity="0.2" d="M119.57 97.9332L118.012 97.0219C117.265 96.5253 116.235 96.5435 115.092 97.2042C112.814 98.5118 110.992 101.838 110.992 104.626V105.264C110.992 108.053 114.741 111.087 114.741 111.087L116.276 111.957C116.276 111.957 115.365 110.905 115.461 110.691C116.463 108.627 119.201 102.799 119.201 100.521V99.8878C119.206 99.4261 119.146 98.966 119.023 98.5209L119.201 98.6212L119.57 97.9332ZM115.092 104.335C113.957 104.986 113.037 104.458 113.037 103.15C113.647 103.054 115.183 100.416 115.092 99.5916C116.226 98.9401 117.142 99.4686 117.142 100.776C117.102 101.489 116.896 102.182 116.54 102.8C116.184 103.418 115.688 103.944 115.092 104.335Z" fill="black"/>
</g>
<path d="M120.836 100.854C120.836 98.0653 119.014 96.8624 116.736 98.1701C114.458 99.4777 112.636 102.804 112.636 105.597V106.23C112.636 108.381 115.069 110.873 116.189 111.907C116.253 111.966 116.329 112.009 116.412 112.032C116.496 112.056 116.583 112.06 116.668 112.044C116.753 112.028 116.833 111.993 116.902 111.941C116.97 111.888 117.026 111.821 117.064 111.743C118.03 109.766 120.845 103.802 120.845 101.492L120.836 100.854ZM116.736 105.282C115.602 105.939 114.686 105.405 114.686 104.098C114.725 103.386 114.931 102.693 115.288 102.074C115.644 101.456 116.14 100.931 116.736 100.539C117.87 99.8878 118.791 100.416 118.791 101.729C118.75 102.44 118.543 103.133 118.186 103.75C117.829 104.367 117.333 104.892 116.736 105.282Z" fill="#0E73F6"/>
<path d="M151.039 44.5926L150.939 44.5334L147.814 42.7382C147.09 42.2602 146.24 42.0109 145.372 42.0229C144.097 42.0676 142.856 42.4462 141.773 43.1209C137.081 45.8274 133.282 52.6891 133.282 58.4756V59.7878C133.282 65.5607 141.026 71.8347 141.026 71.8347L144.183 73.6207C144.079 73.4977 142.284 71.4383 142.498 71.0054C144.575 66.7407 150.242 54.6894 150.242 49.9782V48.6659C150.252 47.7138 150.131 46.7648 149.882 45.8456L150.247 46.0552L151.039 44.5926ZM145.167 59.7878C143.085 60.9907 141.359 60.2663 140.994 58.1931C139.022 58.913 137.528 57.7785 137.528 55.3774C138.79 55.1769 141.96 49.7594 141.773 48.0235C143.851 46.8206 145.577 47.5451 145.942 49.6182C147.919 48.8983 149.413 50.0328 149.413 52.434C149.413 55.1404 147.513 58.4346 145.167 59.7878Z" fill="#263238"/>
<path d="M151.04 44.5928L150.94 44.5335C149.423 43.6815 147.396 43.7954 145.168 45.0803C141.81 47.0213 138.904 51.0991 137.528 55.3775C136.985 57.0091 136.697 58.7152 136.676 60.435V61.7381C136.676 66.185 141.71 71.3427 144.029 73.4796C144.081 73.5275 144.137 73.5702 144.198 73.6072C144.332 73.6913 144.483 73.7463 144.64 73.7688C144.797 73.7913 144.956 73.7808 145.109 73.7379C145.262 73.695 145.404 73.6207 145.526 73.5197C145.648 73.4188 145.748 73.2934 145.819 73.1516C147.819 69.0509 153.646 56.7216 153.646 51.9421V50.6253C153.659 47.6637 152.657 45.5633 151.04 44.5928ZM140.995 58.1933C140.944 57.9107 140.92 57.6239 140.922 57.3367C140.922 54.6303 142.822 51.3361 145.168 49.9829C145.415 49.8399 145.674 49.718 145.942 49.6183C147.919 48.8985 149.414 50.033 149.414 52.4341C149.414 55.1406 147.514 58.4348 145.168 59.788C143.086 60.9909 141.359 60.2664 140.995 58.1933Z" fill="#455A64"/>
<path d="M146.557 48.5246C146.241 48.6509 145.936 48.8033 145.646 48.9802C142.808 50.6159 140.512 54.5936 140.512 57.865C140.508 58.2134 140.538 58.5613 140.603 58.9038C141.058 61.4098 143.131 62.2846 145.646 60.8311C148.479 59.1954 150.78 55.2132 150.78 51.9418C150.757 49.0212 148.948 47.6498 146.557 48.5246Z" fill="#263238"/>
<path d="M145.978 49.8055L146.835 51.628C146.844 51.655 146.86 51.6797 146.88 51.7002C146.9 51.7208 146.924 51.7368 146.951 51.7471C146.978 51.7575 147.006 51.762 147.035 51.7603C147.064 51.7586 147.092 51.7508 147.117 51.7373L149.044 50.9992C149.349 50.8853 149.468 51.3136 149.249 51.7282L147.855 54.3435C147.77 54.496 147.733 54.6709 147.75 54.8447L148.078 57.2095C148.128 57.5876 147.81 58.0797 147.536 58.0478L145.814 57.8337C145.745 57.8364 145.677 57.856 145.616 57.891C145.556 57.9259 145.505 57.9751 145.468 58.0341L143.746 60.2348C143.473 60.5857 143.154 60.4581 143.208 60.0252L143.536 57.2915C143.551 57.2243 143.549 57.1545 143.53 57.0884C143.511 57.0223 143.476 56.9621 143.427 56.9133L142.06 55.9064C141.837 55.7469 141.96 55.1774 142.265 54.9404L144.188 53.4551C144.328 53.3367 144.426 53.1773 144.47 52.9994L145.331 50.1791C145.436 49.7417 145.842 49.5139 145.978 49.8055Z" fill="#0E73F6"/>
<path d="M170.865 56.0145L170.765 55.9553L167.64 54.1601C166.916 53.6821 166.065 53.4328 165.198 53.4447C163.923 53.4894 162.682 53.8681 161.599 54.5428C156.907 57.2492 153.108 64.111 153.108 69.8975V71.2097C153.108 76.9825 160.852 83.2565 160.852 83.2565L164.009 85.0426C163.904 84.9196 162.109 82.8602 162.324 82.4273C164.401 78.1626 170.068 66.1112 170.068 61.4V60.0878C170.078 59.1356 169.957 58.1866 169.708 57.2675L170.073 57.4771L170.865 56.0145ZM164.993 71.2097C162.911 72.4126 161.185 71.6881 160.82 69.615C158.848 70.3349 157.353 69.2004 157.353 66.7992C158.615 66.5988 161.786 61.1813 161.599 59.4454C163.677 58.2425 165.403 58.967 165.768 61.0401C167.745 60.3202 169.239 61.4547 169.239 63.8559C169.239 66.5623 167.339 69.8565 164.993 71.2097Z" fill="#263238"/>
<path d="M170.865 56.0156L170.765 55.9564C169.248 55.1044 167.221 55.2183 164.993 56.5031C161.636 58.4441 158.729 62.522 157.353 66.8004C156.81 68.432 156.522 70.1381 156.502 71.8578V73.1746C156.502 77.6216 161.513 82.7793 163.854 84.9162C163.906 84.964 163.963 85.0068 164.023 85.0438C164.157 85.1278 164.308 85.1829 164.465 85.2054C164.622 85.2279 164.782 85.2173 164.934 85.1744C165.087 85.1315 165.229 85.0572 165.351 84.9563C165.474 84.8553 165.574 84.7299 165.645 84.5881C167.644 80.4875 173.471 68.1581 173.471 63.3786V62.0618C173.485 59.0866 172.482 56.9861 170.865 56.0156ZM160.82 69.6161C160.769 69.3335 160.745 69.0467 160.747 68.7596C160.747 66.0531 162.647 62.7589 164.993 61.4057C165.241 61.2628 165.5 61.1409 165.768 61.0412C167.745 60.3213 169.239 61.4558 169.239 63.857C169.239 66.5634 167.339 69.8576 164.993 71.2108C162.911 72.4137 161.185 71.6893 160.82 69.6161Z" fill="#455A64"/>
<path d="M166.392 59.9433C166.068 60.0685 165.756 60.2209 165.458 60.3989C162.62 62.0346 160.324 66.0168 160.324 69.2883C160.32 69.6352 160.351 69.9816 160.415 70.3225C160.87 72.8285 162.943 73.7033 165.458 72.2498C168.291 70.6141 170.592 66.6319 170.592 63.3605C170.583 60.4445 168.774 59.073 166.392 59.9433Z" fill="#263238"/>
<path d="M169.717 63.282L165.667 62.2021L161.613 67.9659L162.683 67.3462V70.7315L165.039 69.3737V67.4829L166.291 66.7584V68.6493L168.647 67.2915V63.9016L169.717 63.282Z" fill="#0E73F6"/>
<path d="M190.691 67.3563L190.591 67.2971L187.466 65.5019C186.742 65.0239 185.891 64.7746 185.024 64.7865C183.749 64.8312 182.508 65.2099 181.425 65.8846C176.733 68.591 172.933 75.4528 172.933 81.2393V82.5515C172.933 88.3243 180.678 94.5983 180.678 94.5983L183.835 96.3844C183.73 96.2614 181.935 94.2019 182.149 93.7691C184.227 89.5044 189.894 77.453 189.894 72.7418V71.4296C189.904 70.4774 189.783 69.5284 189.534 68.6093L189.898 68.8189L190.691 67.3563ZM184.819 82.5515C182.737 83.7544 181.01 83.0071 180.646 80.9568C178.673 81.6767 177.179 80.5422 177.179 78.141C178.441 77.9405 181.612 72.5231 181.425 70.7872C183.502 69.5843 185.229 70.3088 185.593 72.3819C187.57 71.662 189.065 72.7965 189.065 75.1977C189.065 77.9041 187.165 81.1983 184.819 82.5515Z" fill="#263238"/>
<path d="M190.691 67.3564L190.591 67.2972C189.074 66.4452 187.047 66.5591 184.819 67.844C181.462 69.7849 178.555 73.8628 177.179 78.1412C176.636 79.7728 176.348 81.4789 176.327 83.1987V84.52C176.327 88.9669 181.361 94.1247 183.68 96.2616C183.732 96.3094 183.788 96.3521 183.849 96.3891C183.983 96.4732 184.134 96.5282 184.291 96.5507C184.448 96.5732 184.608 96.5627 184.76 96.5198C184.913 96.4769 185.055 96.4026 185.177 96.3017C185.299 96.2007 185.399 96.0753 185.47 95.9335C187.47 91.8328 193.297 79.5035 193.297 74.724V73.4072C193.311 70.4274 192.308 68.3269 190.691 67.3564ZM180.669 80.957C180.618 80.6743 180.594 80.3876 180.596 80.1004C180.596 77.394 182.496 74.0998 184.842 72.7465C185.089 72.6036 185.348 72.4817 185.616 72.382C187.593 71.6621 189.088 72.7966 189.088 75.1978C189.088 77.9043 187.188 81.1985 184.842 82.5517C182.737 83.7545 181.011 83.0301 180.646 80.957H180.669Z" fill="#455A64"/>
<path d="M186.208 71.3061C185.885 71.431 185.572 71.5835 185.274 71.7617C182.436 73.3974 180.14 77.3796 180.14 80.651C180.137 80.9994 180.167 81.3473 180.231 81.6899C180.687 84.1958 182.755 85.0706 185.274 83.6172C188.108 81.9815 190.404 77.9993 190.404 74.7278C190.404 71.7845 188.6 70.3948 186.208 71.3061Z" fill="#263238"/>
<path d="M185.234 73.8667C186.204 73.3063 186.992 73.7619 186.992 74.8828C186.959 75.4926 186.782 76.086 186.477 76.6148C186.171 77.1436 185.745 77.5929 185.234 77.9264C184.263 78.4868 183.475 78.0312 183.475 76.9103C183.508 76.3005 183.685 75.7071 183.991 75.1783C184.296 74.6495 184.722 74.2002 185.234 73.8667Z" fill="#0E73F6"/>
<path d="M181.881 84.0639C182.792 84.4603 183.967 84.3328 185.265 83.6083C186.65 82.7483 187.811 81.5706 188.65 80.1729V79.8767C188.65 78.0542 187.356 77.2887 185.762 78.2091L184.764 78.7832C183.923 79.3324 183.223 80.0726 182.722 80.9436C182.221 81.8145 181.933 82.7916 181.881 83.7951V84.0639Z" fill="#0E73F6"/>
<path d="M29.9809 40.377C26.792 40.5319 24.5826 41.2882 22.3139 43.5664C20.6466 45.2431 17.0522 54.9799 18.6193 62.8486C18.8853 64.2436 19.4736 65.5572 20.3372 66.6845C21.2009 67.8117 22.3161 68.7215 23.5937 69.3412C24.8714 69.9608 26.2761 70.2733 27.696 70.2535C29.1158 70.2338 30.5113 69.8824 31.7712 69.2274C36.0944 67.0221 36.9327 60.1923 36.8097 56.2101C36.6867 52.2279 29.9809 40.377 29.9809 40.377Z" fill="#263238"/>
<path d="M26.0542 43.3027C26.0542 43.3027 25.1977 42.1819 23.2115 42.8061C23.2115 42.8061 21.1159 45.3303 19.4987 50.0961C19.4987 50.0961 18.9839 50.0961 19.3119 48.7293C19.6399 47.3624 20.9519 44.173 21.7947 43.0385C22.6375 41.9039 23.8265 40.9745 29.5391 38.8786C34.5503 37.056 32.9467 41.6123 32.9467 41.6123L26.0542 43.3027Z" fill="#37474F"/>
<path d="M16.318 108.12C15.6484 107.774 15.2247 108.626 14.6188 109.304C14.1906 109.783 13.53 110.539 13.4298 111.086C13.284 111.892 14.0129 113.159 14.7965 113.856C15.58 114.553 16.5367 115.059 16.8282 116.59C17.1198 118.121 17.7394 119.037 19.3019 119.72C21.0467 120.472 23.4019 120.23 24.1672 119.72C25.1057 119.114 24.2492 118.454 22.9372 116.572C21.2244 114.12 19.8896 112.366 19.8896 110.079L16.318 108.12Z" fill="#263238"/>
<path d="M17.6854 106.111L16.2821 108.175C15.9845 108.6 15.8656 109.124 15.9508 109.635C16.036 110.147 16.3186 110.604 16.7377 110.909L16.7832 110.936C17.2099 111.194 17.7135 111.292 18.2058 111.216C18.698 111.139 19.1477 110.892 19.476 110.517L21.6721 108.121L17.6854 106.111Z" fill="#FFA8A7"/>
<path d="M43.8934 66.4843C43.9845 69.1133 43.5381 79.169 41.6156 84.1992C40.553 87.0552 39.2165 89.8018 37.625 92.4005C37.051 93.3755 20.5872 109.409 20.5872 109.409C20.5872 109.409 17.7947 109.204 17.3482 106.493C17.3482 106.493 24.095 95.0249 25.5482 92.6693C27.0014 90.3137 32.1811 86.7097 32.1811 86.7097L31.7255 64.6572L43.8934 66.4843Z" fill="#37474F"/>
<path d="M39.8983 121.875L43.3815 121.083L42.2291 116.014L38.7459 116.806L39.8983 121.875Z" fill="#FFA8A7"/>
<path d="M37.1825 74.9827C38.3758 73.8883 39.4452 72.6659 40.3714 71.3377C43.0318 67.6607 42.6218 64.3984 42.6218 64.3984H41.533L25.5066 66.508C25.0581 69.1214 25.123 71.7973 25.6979 74.3858C27.1056 81.4891 32.8183 93.627 32.8183 93.627C32.7363 94.6066 32.3217 98.7301 33.2738 102.384C34.7498 108.153 38.7724 117.912 38.7724 117.912C38.7724 117.912 41.2962 118.272 42.5444 116.814C42.5444 116.814 40.3167 96.9987 39.7199 91.923C39.0457 86.4053 37.1825 74.9827 37.1825 74.9827Z" fill="#37474F"/>
<path d="M42.9954 119.361L42.8815 118.864C43.2459 118.933 44.8085 121.525 46.3574 122.655C48.0566 123.89 49.5463 124.619 50.2888 125.175C51.3047 125.922 49.8333 127.453 47.3368 127.58C46.1655 127.664 44.9911 127.467 43.911 127.006C42.8223 126.487 42.1617 125.516 41.3326 124.683C40.7267 124.072 39.811 123.626 39.3509 122.887C39.1414 122.55 39.1095 121.726 39.1323 121.015C39.155 120.304 39.1778 119.648 39.401 119.648L39.4876 120.031C40.1429 120.357 40.8697 120.514 41.6014 120.486C42.189 120.473 43.2824 120.336 42.9954 119.361Z" fill="#263238"/>
<path d="M39.2555 88.5369C39.2555 88.5369 37.5788 76.6131 37.1824 74.982C37.1824 74.982 40.1395 73.8565 41.0507 72.8223C41.0507 72.8223 40.3992 74.2666 38.2851 75.556L39.2555 88.5369Z" fill="#263238"/>
<path d="M32.8141 93.6039C32.0988 92.6198 30.3173 88.1865 30.3173 88.1865L32.1398 93.9229C31.6842 95.6406 31.7206 98.4792 31.7206 98.4792L32.6319 97.6636C32.6364 96.9802 32.8141 93.6039 32.8141 93.6039Z" fill="#263238"/>
<path d="M42.0979 61.5091C39.7837 53.6996 40.2757 47.093 39.8201 45.0654L45.7925 53.4763C46.0523 56.2509 46.4675 59.0088 47.0361 61.7369C47.7195 64.7213 48.6534 68.4438 49.7695 70.7584C49.9705 71.1723 50.3178 71.497 50.7444 71.6696C51.8741 72.1252 52.398 72.7221 53.3046 73.3964C54.0152 73.9295 54.5574 73.9979 54.5118 74.212C54.432 74.4531 54.2645 74.6553 54.0426 74.7785C53.8206 74.9018 53.5604 74.937 53.3137 74.8772C52.7676 74.7604 52.237 74.58 51.7329 74.3396C52.2462 75.1967 52.8937 75.9659 53.6508 76.6177C55.3819 78.1304 55.6279 79.2012 52.7397 79.716C50.9175 80.0441 49.2911 79.1693 47.2457 75.4012C46.4655 74.0272 45.7849 72.5989 45.2094 71.1274C43.8472 67.2773 42.7995 63.8738 42.0979 61.5091Z" fill="#FFA8A7"/>
<path d="M37.8066 41.5801C40.6174 41.6074 43.3871 42.2407 44.3393 45.2251C45.2504 48.1503 46.4713 56.6158 46.4713 56.6158C46.4713 56.6158 45.2868 58.1832 41.3417 57.9281L37.8066 41.5801Z" fill="#0E73F6"/>
<path d="M37.8066 41.5801C40.6174 41.6074 43.3871 42.2407 44.3393 45.2251C45.2504 48.1503 46.4713 56.6158 46.4713 56.6158C46.4713 56.6158 45.2868 58.1832 41.3417 57.9281L37.8066 41.5801Z" fill="#0E73F6"/>
<g opacity="0.1">
<path opacity="0.1" d="M37.8066 41.5801C40.6174 41.6074 43.3871 42.2407 44.3393 45.2251C45.2504 48.1503 46.4713 56.6158 46.4713 56.6158C46.4713 56.6158 45.2868 58.1832 41.3417 57.9281L37.8066 41.5801Z" fill="black"/>
</g>
<path d="M32.0301 41.7493C30.053 42.2049 27.7707 42.615 25.8574 43.5718C24.5271 44.2234 26.4359 55.2496 26.4359 55.2496L25.5248 66.5036C28.1488 69.3604 38.1892 70.6909 43.9156 66.5036V48.2785C43.9156 45.3625 42.2984 41.8632 37.8294 41.6035L32.0301 41.7493Z" fill="#0E73F6"/>
<path d="M26.4269 55.012L28.1582 50.2324L26.1353 58.8256L26.4269 55.012Z" fill="#0E73F6"/>
<path opacity="0.2" d="M26.4269 55.012L28.1582 50.2324L26.1353 58.8256L26.4269 55.012Z" fill="black"/>
<path d="M28.9141 31.6106L30.1534 36.5041C30.2818 37.0117 30.5753 37.4622 30.9877 37.7847C31.4001 38.1072 31.908 38.2834 32.4316 38.2856H33.8805V31.4512L28.9141 31.6106Z" fill="#263238"/>
<path d="M39.5112 35.0207C42.3852 34.6657 44.4274 32.0477 44.0724 29.1732C43.7175 26.2987 41.0999 24.2562 38.2259 24.6112C35.3518 24.9661 33.3097 27.5842 33.6646 30.4587C34.0195 33.3332 36.6371 35.3756 39.5112 35.0207Z" fill="#263238"/>
<path d="M30.7731 26.8359C30.4719 26.8004 30.1666 26.8345 29.8806 26.9356C29.5946 27.0368 29.3357 27.2021 29.1237 27.4191C28.413 28.139 28.5633 29.4831 29.1237 32.5631L31.3153 32.8137L30.7731 26.8359Z" fill="#263238"/>
<path d="M31.7978 32.8181C31.4744 33.0095 31.0097 32.3853 30.6088 31.9661C30.2079 31.5469 28.9005 30.9728 28.249 32.3488C27.5976 33.7248 28.6226 35.602 29.6157 35.9938C29.9696 36.1699 30.3782 36.2014 30.7549 36.0814C31.1315 35.9615 31.4468 35.6997 31.6338 35.3514L32.0256 41.7302C32.418 42.589 33.017 43.3372 33.769 43.908C34.521 44.4789 35.4026 44.8546 36.3352 45.0016C39.483 45.4254 38.8362 42.8328 37.802 41.5616V39.6115C38.5912 39.7508 39.3945 39.7921 40.1937 39.7346C41.3417 39.5204 41.9066 38.4542 42.4715 37.0919C43.2778 35.0553 43.7744 32.1757 43.0774 28.5215C42.1663 23.6828 36.7953 23.578 33.7248 25.5144C30.6544 27.4508 31.7978 32.8181 31.7978 32.8181Z" fill="#FFA8A7"/>
<path d="M31.7978 33.3651C31.6338 33.3651 31.0143 32.3354 30.6088 31.9663C30.0485 31.456 30.7728 26.8359 30.7728 26.8359C31.0553 23.0496 36.6404 22.7626 38.1847 22.6532C41.7198 22.3981 44.1069 24.3573 43.1639 26.8223C42.5261 27.9431 41.2187 28.2529 39.975 28.3987C37.8931 28.6539 34.3535 27.5376 33.907 27.4875C33.3057 27.4009 33.1781 27.9887 32.8501 29.5834C32.5859 30.9776 32.349 33.3514 31.7978 33.3651Z" fill="#263238"/>
<path d="M30.7777 27.1955L28.8139 26.143C28.8768 26.0105 28.9659 25.8921 29.0758 25.795C29.1858 25.6979 29.3143 25.6241 29.4536 25.5781C29.5928 25.5321 29.74 25.5149 29.8861 25.5274C30.0323 25.5399 30.1744 25.5819 30.3038 25.6509C30.5661 25.7983 30.7616 26.0409 30.8498 26.3284C30.938 26.616 30.9122 26.9265 30.7777 27.1955Z" fill="#263238"/>
<path d="M37.8029 39.6297C37.8029 39.6297 34.8869 39.0419 33.8708 38.4997C33.2747 38.1945 32.783 37.7186 32.4584 37.1328C32.6131 37.7278 32.8858 38.2856 33.2603 38.7731C34.0075 39.7253 37.8166 40.427 37.8166 40.427L37.8029 39.6297Z" fill="#F28F8F"/>
<path d="M37.8933 32.7095C37.8889 32.8238 37.8509 32.9342 37.7842 33.0271C37.7174 33.1199 37.6248 33.1911 37.518 33.2318C37.4111 33.2725 37.2946 33.2808 37.183 33.2558C37.0714 33.2308 36.9697 33.1735 36.8904 33.0911C36.8111 33.0087 36.7577 32.9048 36.737 32.7924C36.7163 32.6799 36.7291 32.5638 36.7738 32.4586C36.8186 32.3533 36.8932 32.2636 36.9886 32.2004C37.0839 32.1373 37.1958 32.1036 37.3101 32.1035C37.3883 32.1047 37.4655 32.1213 37.5372 32.1525C37.6089 32.1836 37.6737 32.2287 37.7279 32.285C37.7822 32.3414 37.8247 32.4079 37.8531 32.4807C37.8815 32.5536 37.8951 32.6313 37.8933 32.7095Z" fill="#263238"/>
<path d="M37.2738 30.5037L36.0254 31.2099C35.9361 31.038 35.9166 30.8383 35.9709 30.6524C36.0252 30.4665 36.1492 30.3088 36.317 30.2121C36.3988 30.1676 36.4886 30.1399 36.5812 30.1305C36.6739 30.1211 36.7674 30.1303 36.8565 30.1574C36.9455 30.1846 37.0283 30.2292 37.0999 30.2886C37.1716 30.348 37.2307 30.4211 37.2738 30.5037Z" fill="#263238"/>
<path d="M37.5378 36.6133L38.8683 37.1145C38.8411 37.2061 38.7955 37.2911 38.7341 37.3644C38.6728 37.4376 38.597 37.4974 38.5116 37.5402C38.4261 37.5829 38.3328 37.6076 38.2374 37.6127C38.142 37.6179 38.0465 37.6034 37.957 37.5701C37.776 37.497 37.6308 37.3559 37.5524 37.1771C37.4741 36.9983 37.4688 36.7959 37.5378 36.6133Z" fill="#F28F8F"/>
<path d="M42.7951 30.9911L41.656 30.1117C41.7102 30.0352 41.7793 29.9703 41.8591 29.9211C41.939 29.8719 42.0279 29.8393 42.1207 29.8252C42.2134 29.8112 42.308 29.816 42.3988 29.8394C42.4897 29.8628 42.5749 29.9043 42.6493 29.9614C42.8007 30.0818 42.9001 30.2557 42.9273 30.4472C42.9544 30.6387 42.9071 30.8334 42.7951 30.9911Z" fill="#263238"/>
<path d="M42.4489 32.3716C42.4444 32.4859 42.4064 32.5963 42.3397 32.6892C42.273 32.782 42.1804 32.8532 42.0735 32.8939C41.9666 32.9346 41.8501 32.9429 41.7386 32.9179C41.627 32.8929 41.5252 32.8356 41.4459 32.7532C41.3666 32.6708 41.3133 32.567 41.2925 32.4545C41.2718 32.342 41.2846 32.2259 41.3294 32.1207C41.3741 32.0155 41.4488 31.9257 41.5441 31.8625C41.6395 31.7994 41.7513 31.7657 41.8657 31.7656C41.9438 31.7668 42.021 31.7835 42.0927 31.8146C42.1644 31.8458 42.2293 31.8908 42.2835 31.9471C42.3377 32.0035 42.3802 32.07 42.4086 32.1428C42.437 32.2157 42.4507 32.2934 42.4489 32.3716Z" fill="#263238"/>
<path d="M39.9979 32.4717L39.4511 35.9481L41.3739 35.7203L39.9979 32.4717Z" fill="#F28F8F"/>
<path d="M30.1077 41.6299C30.1077 41.6299 34.5266 43.5936 35.0003 50.3825C35.998 64.5799 25.3107 67.8468 25.3107 67.8468C24.3996 66.0562 25.133 63.6368 25.8801 61.9236C27.6146 60.7919 29.0196 59.2223 29.9531 57.3734C30.8866 55.5245 31.3155 53.4619 31.1964 51.394C30.9504 46.2181 28.3811 43.3203 27.0964 42.9284C28.0083 42.3076 29.0304 41.8669 30.1077 41.6299Z" fill="#37474F"/>
<path d="M21.8038 68.2531C23.7171 67.5833 24.1955 67.3419 26.6054 65.3963C29.0153 63.4508 31.0562 60.8674 32.9832 58.3067C33.2157 58.0075 33.4732 57.7285 33.753 57.4729C34.2478 57.0377 34.6855 56.5417 35.0559 55.9967C35.8987 54.7164 35.9124 53.8826 35.9944 52.3517C36.0586 50.8072 35.8441 49.2638 35.3612 47.7954C35.3215 47.6305 35.2486 47.4755 35.147 47.3398C35.0937 47.2732 35.0227 47.2229 34.9421 47.1947C34.8616 47.1665 34.7747 47.1615 34.6915 47.1803C34.5566 47.2389 34.4457 47.3418 34.3772 47.4719C33.8396 48.292 33.466 49.2078 32.933 50.0416C32.6916 50.4198 32.523 50.5702 32.3044 50.9529C32.277 50.9985 31.8488 51.4359 31.7668 51.2445C31.6848 51.0531 31.949 50.4563 31.8534 49.4903C31.7577 48.5244 31.4935 48.1781 31.1974 48.1007C30.7418 47.9822 30.7418 48.4925 30.5368 49.2625C30.3045 50.1738 29.9492 50.9301 29.9902 52.2833C30.0095 53.2105 29.8741 54.1345 29.5893 55.0171C29.3296 56.0605 28.1406 58.4115 25.1977 60.2249C24.5554 60.6213 24.3504 60.6806 24.7421 59.1451C25.3867 56.248 26.3113 53.4205 27.5028 50.7023C28.6782 48.0278 29.489 45.982 28.4139 44.893C26.5325 43.025 23.8948 44.0911 22.4234 47.2714C20.7241 50.9438 19.7948 53.7322 19.1115 60.4846C18.7926 63.4189 18.5101 69.4059 21.8038 68.2531Z" fill="#FFA8A7"/>
<path d="M27.2979 43.002C25.0748 43.1022 23.5942 43.9998 22.1228 46.9021C20.6513 49.8045 19.5215 54.903 19.5215 54.903C19.5215 54.903 21.6125 57.131 25.6715 57.0171C25.6715 57.0171 28.2227 50.3285 28.7101 48.5287C29.2431 46.565 28.7784 43.6763 27.2979 43.002Z" fill="#0E73F6"/>
</svg>
